<mxfile host="drawio-plugin" modified="2022-10-12T10:53:54.741Z" agent="5.0 (X11; Linux x86_64) AppleWebKit/537.36 (KHTML, like Gecko) Chrome/98.0.4758.102 Safari/537.36" etag="NHIvDqPihdda3XblSPN-" version="15.5.4" type="embed" pages="4"><diagram name="page00" id="页-1"><mxGraphModel dx="1020" dy="724" grid="1" gridSize="10" guides="1" tooltips="1" connect="1" arrows="1" fold="1" page="1" pageScale="1" pageWidth="1920" pageHeight="1200" math="0" shadow="0"><root><mxCell id="0"/><mxCell id="1" value="流程图" parent="0"/><mxCell id="2" value="连接线" parent="0"/><mxCell id="133" style="vsdxID=266;edgeStyle=none;startArrow=none;endArrow=none;startSize=9;endSize=9;spacingTop=0;spacingBottom=0;spacingLeft=0;spacingRight=0;verticalAlign=middle;html=1;labelBackgroundColor=#ffffff;rounded=0;exitX=1;exitY=0.5;exitDx=0;exitDy=0;exitPerimeter=0;entryX=0;entryY=0.5;entryDx=0;entryDy=0;entryPerimeter=0;" parent="2" edge="1"><mxGeometry relative="1" as="geometry"><mxPoint as="offset"/><Array as="points"/><mxPoint x="1349" y="1410" as="sourcePoint"/></mxGeometry></mxCell><mxCell id="134" style="vsdxID=252;edgeStyle=none;startArrow=none;endArrow=none;startSize=9;endSize=9;spacingTop=0;spacingBottom=0;spacingLeft=0;spacingRight=0;verticalAlign=middle;html=1;labelBackgroundColor=#ffffff;rounded=0;exitX=1;exitY=0.5;exitDx=0;exitDy=0;exitPerimeter=0;entryX=0;entryY=0.5;entryDx=0;entryDy=0;entryPerimeter=0;" parent="2" edge="1"><mxGeometry relative="1" as="geometry"><mxPoint as="offset"/><Array as="points"><mxPoint x="1051" y="1410"/><mxPoint x="1051" y="1409.5"/></Array><mxPoint x="1036" y="1410" as="sourcePoint"/></mxGeometry></mxCell><mxCell id="135" style="vsdxID=230;edgeStyle=none;startArrow=none;endArrow=none;startSize=9;endSize=9;spacingTop=0;spacingBottom=0;spacingLeft=0;spacingRight=0;verticalAlign=middle;html=1;labelBackgroundColor=#ffffff;rounded=0;exitX=1.0384615384615385;exitY=0.5;exitDx=0;exitDy=0;exitPerimeter=0;entryX=0;entryY=0.5;entryDx=0;entryDy=0;entryPerimeter=0;" parent="2" edge="1"><mxGeometry relative="1" as="geometry"><mxPoint as="offset"/><Array as="points"/><mxPoint x="670" y="1410" as="sourcePoint"/></mxGeometry></mxCell><mxCell id="136" style="vsdxID=212;edgeStyle=none;startArrow=none;endArrow=none;startSize=9;endSize=9;spacingTop=0;spacingBottom=0;spacingLeft=0;spacingRight=0;verticalAlign=middle;html=1;labelBackgroundColor=#ffffff;rounded=0;exitX=1;exitY=0.5;exitDx=0;exitDy=0;exitPerimeter=0;entryX=0;entryY=0.5;entryDx=0;entryDy=0;entryPerimeter=0;" parent="2" edge="1"><mxGeometry relative="1" as="geometry"><mxPoint as="offset"/><Array as="points"/><mxPoint x="460" y="1410" as="sourcePoint"/></mxGeometry></mxCell><mxCell id="137" style="vsdxID=194;edgeStyle=none;startArrow=none;endArrow=none;startSize=9;endSize=9;spacingTop=0;spacingBottom=0;spacingLeft=0;spacingRight=0;verticalAlign=middle;html=1;labelBackgroundColor=#ffffff;rounded=0;exitX=1;exitY=0.5;exitDx=0;exitDy=0;exitPerimeter=0;entryX=0;entryY=0.5;entryDx=0;entryDy=0;entryPerimeter=0;" parent="2" edge="1"><mxGeometry relative="1" as="geometry"><mxPoint x="-1" as="offset"/><Array as="points"/><mxPoint x="232" y="1410" as="sourcePoint"/></mxGeometry></mxCell><mxCell id="138" style="vsdxID=150;edgeStyle=none;startArrow=none;endArrow=none;startSize=9;endSize=9;spacingTop=0;spacingBottom=0;spacingLeft=0;spacingRight=0;verticalAlign=middle;html=1;labelBackgroundColor=#ffffff;rounded=0;exitX=1.0384615384615385;exitY=0.5;exitDx=0;exitDy=0;exitPerimeter=0;entryX=0;entryY=0.5;entryDx=0;entryDy=0;entryPerimeter=0;" parent="2" edge="1"><mxGeometry relative="1" as="geometry"><mxPoint as="offset"/><Array as="points"/><mxPoint x="1265" y="622" as="sourcePoint"/></mxGeometry></mxCell><mxCell id="139" style="vsdxID=41;edgeStyle=none;startArrow=none;endArrow=none;startSize=9;endSize=9;spacingTop=0;spacingBottom=0;spacingLeft=0;spacingRight=0;verticalAlign=middle;html=1;labelBackgroundColor=#ffffff;rounded=0;exitX=0;exitY=0.5;exitDx=0;exitDy=0;exitPerimeter=0;entryX=0;entryY=0.5;entryDx=0;entryDy=0;entryPerimeter=0;" parent="2" edge="1"><mxGeometry relative="1" as="geometry"><mxPoint x="10" as="offset"/><Array as="points"><mxPoint x="60" y="283"/><mxPoint x="60" y="187"/></Array><mxPoint x="85" y="187" as="targetPoint"/></mxGeometry></mxCell><mxCell id="140" style="vsdxID=69;edgeStyle=none;startArrow=none;endArrow=none;startSize=9;endSize=9;spacingTop=0;spacingBottom=0;spacingLeft=0;spacingRight=0;verticalAlign=middle;html=1;labelBackgroundColor=#ffffff;rounded=0;exitX=1;exitY=0.5;exitDx=0;exitDy=0;exitPerimeter=0;entryX=0;entryY=0.5;entryDx=0;entryDy=0;entryPerimeter=0;" parent="2" edge="1"><mxGeometry relative="1" as="geometry"><mxPoint x="-1" as="offset"/><Array as="points"/><mxPoint x="148" y="622" as="sourcePoint"/></mxGeometry></mxCell><mxCell id="141" style="vsdxID=90;edgeStyle=none;startArrow=none;endArrow=none;startSize=9;endSize=9;spacingTop=0;spacingBottom=0;spacingLeft=0;spacingRight=0;verticalAlign=middle;html=1;labelBackgroundColor=#ffffff;rounded=0;exitX=1;exitY=0.5;exitDx=0;exitDy=0;exitPerimeter=0;entryX=0;entryY=0.5;entryDx=0;entryDy=0;entryPerimeter=0;" parent="2" edge="1"><mxGeometry relative="1" as="geometry"><mxPoint as="offset"/><Array as="points"/><mxPoint x="376" y="622" as="sourcePoint"/></mxGeometry></mxCell><mxCell id="142" style="vsdxID=110;edgeStyle=none;startArrow=none;endArrow=none;startSize=9;endSize=9;spacingTop=0;spacingBottom=0;spacingLeft=0;spacingRight=0;verticalAlign=middle;html=1;labelBackgroundColor=#ffffff;rounded=0;exitX=1;exitY=0.5;exitDx=0;exitDy=0;exitPerimeter=0;entryX=0;entryY=0.5;entryDx=0;entryDy=0;entryPerimeter=0;" parent="2" edge="1"><mxGeometry relative="1" as="geometry"><mxPoint as="offset"/><Array as="points"/><mxPoint x="585" y="622" as="sourcePoint"/></mxGeometry></mxCell><mxCell id="143" style="vsdxID=134;edgeStyle=none;startArrow=none;endArrow=none;startSize=9;endSize=9;spacingTop=0;spacingBottom=0;spacingLeft=0;spacingRight=0;verticalAlign=middle;html=1;labelBackgroundColor=#ffffff;rounded=0;exitX=1;exitY=0.5;exitDx=0;exitDy=0;exitPerimeter=0;entryX=0;entryY=0.5;entryDx=0;entryDy=0;entryPerimeter=0;" parent="2" edge="1"><mxGeometry relative="1" as="geometry"><mxPoint as="offset"/><Array as="points"><mxPoint x="967" y="622"/><mxPoint x="967" y="621.5"/></Array><mxPoint x="952" y="622" as="sourcePoint"/></mxGeometry></mxCell></root></mxGraphModel></diagram><diagram name="page01" id="页-2"><mxGraphModel dx="1020" dy="724" grid="1" gridSize="10" guides="1" tooltips="1" connect="1" arrows="1" fold="1" page="1" pageScale="1" pageWidth="827" pageHeight="1169" math="0" shadow="0"><root><mxCell id="0"/><mxCell id="1" value="流程图" parent="0"/><mxCell id="2" value="连接线" parent="0"/><mxCell id="301" style="vsdxID=971;edgeStyle=none;startArrow=none;endArrow=none;startSize=9;endSize=9;spacingTop=0;spacingBottom=0;spacingLeft=0;spacingRight=0;verticalAlign=middle;html=1;labelBackgroundColor=#ffffff;rounded=0;exitX=0.5;exitY=0;exitDx=0;exitDy=0;exitPerimeter=0;entryX=0.5;entryY=1;entryDx=0;entryDy=0;entryPerimeter=0;" parent="2" edge="1"><mxGeometry relative="1" as="geometry"><mxPoint x="-7" as="offset"/><Array as="points"><mxPoint x="1630" y="805"/><mxPoint x="1622.7" y="805"/></Array><mxPoint x="1622" y="612" as="targetPoint"/></mxGeometry></mxCell><mxCell id="302" style="vsdxID=947;edgeStyle=none;startArrow=none;endArrow=none;startSize=9;endSize=9;spacingTop=0;spacingBottom=0;spacingLeft=0;spacingRight=0;verticalAlign=middle;html=1;labelBackgroundColor=#ffffff;rounded=0;exitX=0.5;exitY=0;exitDx=0;exitDy=0;exitPerimeter=0;entryX=0.5;entryY=1;entryDx=0;entryDy=0;entryPerimeter=0;" parent="2" edge="1"><mxGeometry relative="1" as="geometry"><mxPoint x="8" as="offset"/><Array as="points"><mxPoint x="2490" y="725"/><mxPoint x="2493.5" y="725"/></Array><mxPoint x="2493" y="604" as="targetPoint"/></mxGeometry></mxCell><mxCell id="303" value="&lt;font style=&quot;font-size:11px;font-family:SimSun;color:#000000;direction:ltr;letter-spacing:0px;line-height:120%;opacity:1&quot;&gt;失败&lt;br/&gt;&lt;/font&gt;" style="vsdxID=900;edgeStyle=none;startArrow=none;endArrow=none;startSize=9;endSize=9;spacingTop=0;spacingBottom=0;spacingLeft=0;spacingRight=0;verticalAlign=middle;html=1;labelBackgroundColor=#ffffff;rounded=0;align=center;exitX=1;exitY=0.5;exitDx=0;exitDy=0;exitPerimeter=0;entryX=0;entryY=0.5;entryDx=0;entryDy=0;entryPerimeter=0;" parent="2" edge="1"><mxGeometry relative="1" as="geometry"><mxPoint as="offset"/><Array as="points"><mxPoint x="2273" y="731"/><mxPoint x="2273" y="779.51"/><mxPoint x="2360.07" y="779.51"/></Array><mxPoint x="2258" y="731" as="sourcePoint"/></mxGeometry></mxCell><mxCell id="304" style="vsdxID=899;edgeStyle=none;startArrow=none;endArrow=none;startSize=9;endSize=9;spacingTop=0;spacingBottom=0;spacingLeft=0;spacingRight=0;verticalAlign=middle;html=1;labelBackgroundColor=#ffffff;rounded=0;exitX=1;exitY=0.5;exitDx=0;exitDy=0;exitPerimeter=0;entryX=0.5;entryY=1;entryDx=0;entryDy=0;entryPerimeter=0;" parent="2" edge="1"><mxGeometry relative="1" as="geometry"><mxPoint as="offset"/><Array as="points"><mxPoint x="2363.4" y="860"/></Array><mxPoint x="2363" y="604" as="targetPoint"/></mxGeometry></mxCell><mxCell id="305" value="&lt;font style=&quot;font-size:11px;font-family:SimSun;color:#000000;direction:ltr;letter-spacing:0px;line-height:120%;opacity:1&quot;&gt;成功&lt;br/&gt;&lt;/font&gt;" style="vsdxID=898;edgeStyle=none;startArrow=none;endArrow=none;startSize=9;endSize=9;spacingTop=0;spacingBottom=0;spacingLeft=0;spacingRight=0;verticalAlign=middle;html=1;labelBackgroundColor=#ffffff;rounded=0;align=center;exitX=0.5;exitY=1;exitDx=0;exitDy=0;exitPerimeter=0;entryX=0.5;entryY=0;entryDx=0;entryDy=0;entryPerimeter=0;" parent="2" edge="1"><mxGeometry relative="1" as="geometry"><mxPoint x="10" as="offset"/><Array as="points"/><mxPoint x="2208" y="771" as="sourcePoint"/></mxGeometry></mxCell><mxCell id="306" style="vsdxID=874;edgeStyle=none;startArrow=none;endArrow=none;startSize=9;endSize=9;spacingTop=0;spacingBottom=0;spacingLeft=0;spacingRight=0;verticalAlign=middle;html=1;labelBackgroundColor=#ffffff;rounded=0;exitX=1;exitY=0.5;exitDx=0;exitDy=0;exitPerimeter=0;entryX=0.5;entryY=1;entryDx=0;entryDy=0;entryPerimeter=0;" parent="2" edge="1"><mxGeometry relative="1" as="geometry"><mxPoint as="offset"/><Array as="points"><mxPoint x="1492.37" y="993"/></Array><mxPoint x="1492" y="612" as="targetPoint"/></mxGeometry></mxCell><mxCell id="307" value="&lt;font style=&quot;font-size:11px;font-family:SimSun;color:#000000;direction:ltr;letter-spacing:0px;line-height:120%;opacity:1&quot;&gt;成功&lt;br/&gt;&lt;/font&gt;" style="vsdxID=873;edgeStyle=none;startArrow=none;endArrow=none;startSize=9;endSize=9;spacingTop=0;spacingBottom=0;spacingLeft=0;spacingRight=0;verticalAlign=middle;html=1;labelBackgroundColor=#ffffff;rounded=0;align=center;exitX=0.5;exitY=1;exitDx=0;exitDy=0;exitPerimeter=0;entryX=0.5;entryY=0;entryDx=0;entryDy=0;entryPerimeter=0;" parent="2" edge="1"><mxGeometry relative="1" as="geometry"><mxPoint x="-10" y="-1" as="offset"/><Array as="points"><mxPoint x="1420" y="925"/><mxPoint x="1418.33" y="925"/></Array><mxPoint x="1420" y="900" as="sourcePoint"/></mxGeometry></mxCell><mxCell id="308" style="vsdxID=849;edgeStyle=none;startArrow=none;endArrow=none;startSize=9;endSize=9;spacingTop=0;spacingBottom=0;spacingLeft=0;spacingRight=0;verticalAlign=middle;html=1;labelBackgroundColor=#ffffff;rounded=0;exitX=0.5;exitY=0;exitDx=0;exitDy=0;exitPerimeter=0;entryX=0.5;entryY=1;entryDx=0;entryDy=0;entryPerimeter=0;" parent="2" edge="1"><mxGeometry relative="1" as="geometry"><mxPoint x="-7" y="-1" as="offset"/><Array as="points"><mxPoint x="620" y="935"/><mxPoint x="612.7" y="935"/></Array><mxPoint x="612" y="950" as="sourcePoint"/></mxGeometry></mxCell><mxCell id="309" value="&lt;font style=&quot;font-size:11px;font-family:SimSun;color:#000000;direction:ltr;letter-spacing:0px;line-height:120%;opacity:1&quot;&gt;出票成功&lt;br/&gt;&lt;/font&gt;" style="vsdxID=848;edgeStyle=none;startArrow=none;endArrow=none;startSize=9;endSize=9;spacingTop=0;spacingBottom=0;spacingLeft=0;spacingRight=0;verticalAlign=middle;html=1;labelBackgroundColor=#ffffff;rounded=0;align=center;exitX=1;exitY=0.5;exitDx=0;exitDy=0;exitPerimeter=0;entryX=0;entryY=0.5;entryDx=0;entryDy=0;entryPerimeter=0;" parent="2" edge="1"><mxGeometry relative="1" as="geometry"><mxPoint as="offset"/><Array as="points"/><mxPoint x="562" y="990" as="targetPoint"/></mxGeometry></mxCell><mxCell id="310" style="vsdxID=803;edgeStyle=none;startArrow=none;endArrow=none;startSize=9;endSize=9;spacingTop=0;spacingBottom=0;spacingLeft=0;spacingRight=0;verticalAlign=middle;html=1;labelBackgroundColor=#ffffff;rounded=0;exitX=0.5;exitY=0;exitDx=0;exitDy=0;exitPerimeter=0;entryX=0.5;entryY=1;entryDx=0;entryDy=0;entryPerimeter=0;" parent="2" edge="1"><mxGeometry relative="1" as="geometry"><mxPoint x="10" as="offset"/><Array as="points"/><mxPoint x="2363" y="524" as="sourcePoint"/></mxGeometry></mxCell><mxCell id="311" style="vsdxID=779;edgeStyle=none;startArrow=none;endArrow=none;startSize=9;endSize=9;spacingTop=0;spacingBottom=0;spacingLeft=0;spacingRight=0;verticalAlign=middle;html=1;labelBackgroundColor=#ffffff;rounded=0;exitX=0.5;exitY=1;exitDx=0;exitDy=0;exitPerimeter=0;entryX=0.5;entryY=0;entryDx=0;entryDy=0;entryPerimeter=0;" parent="2" edge="1"><mxGeometry relative="1" as="geometry"><mxPoint x="8" as="offset"/><Array as="points"><mxPoint x="2205" y="526"/><mxPoint x="2207.3" y="526"/></Array><mxPoint x="2205" y="511" as="sourcePoint"/></mxGeometry></mxCell><mxCell id="312" style="vsdxID=778;edgeStyle=none;startArrow=none;endArrow=none;startSize=9;endSize=9;spacingTop=0;spacingBottom=0;spacingLeft=0;spacingRight=0;verticalAlign=middle;html=1;labelBackgroundColor=#ffffff;rounded=0;exitX=0.5;exitY=0;exitDx=0;exitDy=0;exitPerimeter=0;entryX=0.5;entryY=1;entryDx=0;entryDy=0;entryPerimeter=0;" parent="2" edge="1"><mxGeometry relative="1" as="geometry"><mxPoint x="10" as="offset"/><Array as="points"/><mxPoint x="2493" y="524" as="sourcePoint"/></mxGeometry></mxCell><mxCell id="313" value="&lt;font style=&quot;font-size:11px;font-family:SimSun;color:#000000;direction:ltr;letter-spacing:0px;line-height:120%;opacity:1&quot;&gt;退票失败&lt;br/&gt;&lt;/font&gt;" style="vsdxID=641;edgeStyle=none;startArrow=none;endArrow=none;startSize=9;endSize=9;spacingTop=0;spacingBottom=0;spacingLeft=0;spacingRight=0;verticalAlign=middle;html=1;labelBackgroundColor=#ffffff;rounded=0;align=center;exitX=1;exitY=0.5;exitDx=0;exitDy=0;exitPerimeter=0;entryX=0;entryY=0.5;entryDx=0;entryDy=0;entryPerimeter=0;" parent="2" edge="1"><mxGeometry relative="1" as="geometry"><mxPoint as="offset"/><Array as="points"><mxPoint x="1489.37" y="860"/></Array><mxPoint x="1470" y="860" as="sourcePoint"/></mxGeometry></mxCell><mxCell id="314" style="vsdxID=639;edgeStyle=none;startArrow=none;endArrow=none;startSize=9;endSize=9;spacingTop=0;spacingBottom=0;spacingLeft=0;spacingRight=0;verticalAlign=middle;html=1;labelBackgroundColor=#ffffff;rounded=0;exitX=0.5;exitY=1;exitDx=0;exitDy=0;exitPerimeter=0;entryX=0.5;entryY=1;entryDx=0;entryDy=0;entryPerimeter=0;" parent="2" edge="1"><mxGeometry relative="1" as="geometry"><mxPoint as="offset"/><Array as="points"><mxPoint x="1270" y="915"/><mxPoint x="1416.67" y="915"/><mxPoint x="1492.7" y="915"/></Array><mxPoint x="1492" y="612" as="targetPoint"/></mxGeometry></mxCell><mxCell id="315" value="&lt;font style=&quot;font-size:11px;font-family:SimSun;color:#000000;direction:ltr;letter-spacing:0px;line-height:120%;opacity:1&quot;&gt;失败&lt;br/&gt;&lt;/font&gt;" style="vsdxID=638;edgeStyle=none;startArrow=none;endArrow=none;startSize=9;endSize=9;spacingTop=0;spacingBottom=0;spacingLeft=0;spacingRight=0;verticalAlign=middle;html=1;labelBackgroundColor=#ffffff;rounded=0;align=center;exitX=1;exitY=0.5;exitDx=0;exitDy=0;exitPerimeter=0;entryX=0;entryY=0.5;entryDx=0;entryDy=0;entryPerimeter=0;" parent="2" edge="1"><mxGeometry relative="1" as="geometry"><mxPoint as="offset"/><Array as="points"/><mxPoint x="1320" y="860" as="sourcePoint"/></mxGeometry></mxCell><mxCell id="316" value="&lt;font style=&quot;font-size:11px;font-family:SimSun;color:#000000;direction:ltr;letter-spacing:0px;line-height:120%;opacity:1&quot;&gt;否&lt;br/&gt;&lt;/font&gt;" style="vsdxID=637;edgeStyle=none;startArrow=none;endArrow=none;startSize=9;endSize=9;spacingTop=0;spacingBottom=0;spacingLeft=0;spacingRight=0;verticalAlign=middle;html=1;labelBackgroundColor=#ffffff;rounded=0;align=center;exitX=1;exitY=0.5;exitDx=0;exitDy=0;exitPerimeter=0;entryX=0.5;entryY=0;entryDx=0;entryDy=0;entryPerimeter=0;" parent="2" edge="1"><mxGeometry relative="1" as="geometry"><mxPoint y="-1" as="offset"/><Array as="points"><mxPoint x="1419.7" y="739"/></Array><mxPoint x="1387" y="739" as="sourcePoint"/></mxGeometry></mxCell><mxCell id="317" value="&lt;font style=&quot;font-size:11px;font-family:SimSun;color:#000000;direction:ltr;letter-spacing:0px;line-height:120%;opacity:1&quot;&gt;是&lt;br/&gt;&lt;/font&gt;" style="vsdxID=621;edgeStyle=none;startArrow=none;endArrow=none;startSize=9;endSize=9;spacingTop=0;spacingBottom=0;spacingLeft=0;spacingRight=0;verticalAlign=middle;html=1;labelBackgroundColor=#ffffff;rounded=0;align=center;exitX=0;exitY=0.5;exitDx=0;exitDy=0;exitPerimeter=0;entryX=0.5;entryY=0;entryDx=0;entryDy=0;entryPerimeter=0;" parent="2" edge="1"><mxGeometry relative="1" as="geometry"><mxPoint x="-2" as="offset"/><Array as="points"><mxPoint x="1269.7" y="739"/></Array><mxPoint x="1287" y="739" as="sourcePoint"/></mxGeometry></mxCell><mxCell id="318" style="vsdxID=617;edgeStyle=none;startArrow=none;endArrow=none;startSize=9;endSize=9;spacingTop=0;spacingBottom=0;spacingLeft=0;spacingRight=0;verticalAlign=middle;html=1;labelBackgroundColor=#ffffff;rounded=0;exitX=0.5;exitY=0;exitDx=0;exitDy=0;exitPerimeter=0;entryX=0.5;entryY=1;entryDx=0;entryDy=0;entryPerimeter=0;" parent="2" edge="1"><mxGeometry relative="1" as="geometry"><mxPoint x="10" as="offset"/><Array as="points"/><mxPoint x="1492" y="532" as="sourcePoint"/></mxGeometry></mxCell><mxCell id="319" style="vsdxID=592;edgeStyle=none;startArrow=none;endArrow=none;startSize=9;endSize=9;spacingTop=0;spacingBottom=0;spacingLeft=0;spacingRight=0;verticalAlign=middle;html=1;labelBackgroundColor=#ffffff;rounded=0;exitX=0.5;exitY=1;exitDx=0;exitDy=0;exitPerimeter=0;entryX=0.5;entryY=0;entryDx=0;entryDy=0;entryPerimeter=0;" parent="2" edge="1"><mxGeometry relative="1" as="geometry"><mxPoint x="8" as="offset"/><Array as="points"><mxPoint x="1335" y="534"/><mxPoint x="1337.3" y="534"/></Array><mxPoint x="1335" y="519" as="sourcePoint"/></mxGeometry></mxCell><mxCell id="320" style="vsdxID=591;edgeStyle=none;startArrow=none;endArrow=none;startSize=9;endSize=9;spacingTop=0;spacingBottom=0;spacingLeft=0;spacingRight=0;verticalAlign=middle;html=1;labelBackgroundColor=#ffffff;rounded=0;exitX=0.5;exitY=0;exitDx=0;exitDy=0;exitPerimeter=0;entryX=0.5;entryY=1;entryDx=0;entryDy=0;entryPerimeter=0;" parent="2" edge="1"><mxGeometry relative="1" as="geometry"><mxPoint x="10" as="offset"/><Array as="points"/><mxPoint x="1622" y="532" as="sourcePoint"/></mxGeometry></mxCell><mxCell id="321" style="vsdxID=379;edgeStyle=none;startArrow=none;endArrow=none;startSize=9;endSize=9;spacingTop=0;spacingBottom=0;spacingLeft=0;spacingRight=0;verticalAlign=middle;html=1;labelBackgroundColor=#ffffff;rounded=0;exitX=0.5;exitY=0;exitDx=0;exitDy=0;exitPerimeter=0;entryX=0.5;entryY=1;entryDx=0;entryDy=0;entryPerimeter=0;" parent="2" edge="1"><mxGeometry relative="1" as="geometry"><mxPoint x="10" as="offset"/><Array as="points"/><mxPoint x="612" y="653" as="sourcePoint"/></mxGeometry></mxCell><mxCell id="323" style="vsdxID=354;edgeStyle=none;startArrow=none;endArrow=none;startSize=9;endSize=9;spacingTop=0;spacingBottom=0;spacingLeft=0;spacingRight=0;verticalAlign=middle;html=1;labelBackgroundColor=#ffffff;rounded=0;exitX=0.5;exitY=1;exitDx=0;exitDy=0;exitPerimeter=0;entryX=0.5;entryY=0;entryDx=0;entryDy=0;entryPerimeter=0;" parent="2" edge="1"><mxGeometry relative="1" as="geometry"><mxPoint x="10" as="offset"/><Array as="points"/><mxPoint x="457" y="389" as="sourcePoint"/></mxGeometry></mxCell><mxCell id="326" parent="2" vertex="1"><mxGeometry x="457" y="955" as="geometry"/></mxCell><mxCell id="329" value="&lt;font style=&quot;font-size:11px;font-family:SimSun;color:#000000;direction:ltr;letter-spacing:0px;line-height:120%;opacity:1&quot;&gt;出票成功&lt;br/&gt;&lt;/font&gt;" style="vsdxID=289;edgeStyle=none;startArrow=none;endArrow=none;startSize=9;endSize=9;spacingTop=0;spacingBottom=0;spacingLeft=0;spacingRight=0;verticalAlign=middle;html=1;labelBackgroundColor=#ffffff;rounded=0;align=center;exitX=1;exitY=0.5;exitDx=0;exitDy=0;exitPerimeter=0;entryX=0.5;entryY=1;entryDx=0;entryDy=0;entryPerimeter=0;" parent="2" edge="1"><mxGeometry relative="1" as="geometry"><mxPoint as="offset"/><Array as="points"><mxPoint x="612.4" y="860"/></Array><mxPoint x="507" y="860" as="sourcePoint"/></mxGeometry></mxCell><mxCell id="330" value="&lt;font style=&quot;font-size:11px;font-family:SimSun;color:#000000;direction:ltr;letter-spacing:0px;line-height:120%;opacity:1&quot;&gt;出票失败&lt;br/&gt;&lt;/font&gt;" style="vsdxID=329;edgeStyle=none;startArrow=none;endArrow=none;startSize=9;endSize=9;spacingTop=0;spacingBottom=0;spacingLeft=0;spacingRight=0;verticalAlign=middle;html=1;labelBackgroundColor=#ffffff;rounded=0;align=center;exitX=0.5;exitY=1;exitDx=0;exitDy=0;exitPerimeter=0;entryX=0;entryY=0.5;entryDx=0;entryDy=0;entryPerimeter=0;" parent="2" edge="1"><mxGeometry relative="1" as="geometry"><mxPoint as="offset"/><Array as="points"><mxPoint x="457" y="1050"/></Array><mxPoint x="710" y="1050" as="targetPoint"/></mxGeometry></mxCell></root></mxGraphModel></diagram><diagram name="page02" id="页-3"><mxGraphModel dx="1020" dy="724" grid="1" gridSize="10" guides="1" tooltips="1" connect="1" arrows="1" fold="1" page="1" pageScale="1" pageWidth="827" pageHeight="1169" math="0" shadow="0"><root><mxCell id="0"/><mxCell id="1" value="流程图" parent="0"/><mxCell id="2" value="连接线" parent="0"/><mxCell id="353" value="&lt;font style=&quot;font-size:11px;font-family:SimSun;color:#000000;direction:ltr;letter-spacing:0px;line-height:120%;opacity:1&quot;&gt;是&lt;br/&gt;&lt;/font&gt;" style="vsdxID=980;edgeStyle=none;startArrow=none;endArrow=block;startSize=9;endSize=9;spacingTop=0;spacingBottom=0;spacingLeft=0;spacingRight=0;verticalAlign=middle;html=1;labelBackgroundColor=#ffffff;rounded=0;align=center;exitX=1;exitY=0.5;exitDx=0;exitDy=0;exitPerimeter=0;entryX=0;entryY=0.5;entryDx=0;entryDy=0;entryPerimeter=0;" parent="2" edge="1"><mxGeometry relative="1" as="geometry"><mxPoint as="offset"/><Array as="points"/><mxPoint x="1371.5" y="4861" as="targetPoint"/></mxGeometry></mxCell><mxCell id="354" value="" style="vsdxID=979;edgeStyle=none;startArrow=none;endArrow=block;startSize=9;endSize=9;spacingTop=0;spacingBottom=0;spacingLeft=0;spacingRight=0;verticalAlign=middle;html=1;labelBackgroundColor=#FFFFFF;rounded=0;align=center;exitX=0;exitY=0.5;exitDx=0;exitDy=0;exitPerimeter=0;entryX=1;entryY=0.5;entryDx=0;entryDy=0;entryPerimeter=0;" parent="2" edge="1"><mxGeometry relative="1" as="geometry"><mxPoint as="offset"/><Array as="points"/><mxPoint x="690" y="3500" as="targetPoint"/></mxGeometry></mxCell><mxCell id="355" style="vsdxID=976;edgeStyle=none;startArrow=none;endArrow=block;startSize=9;endSize=9;spacingTop=0;spacingBottom=0;spacingLeft=0;spacingRight=0;verticalAlign=middle;html=1;labelBackgroundColor=#ffffff;rounded=0;exitX=1;exitY=0.5;exitDx=0;exitDy=0;exitPerimeter=0;entryX=0;entryY=0.5;entryDx=0;entryDy=0;entryPerimeter=0;" parent="2" edge="1"><mxGeometry relative="1" as="geometry"><mxPoint x="-1" as="offset"/><Array as="points"/><mxPoint x="929.5" y="4861" as="sourcePoint"/></mxGeometry></mxCell><mxCell id="356" style="vsdxID=974;edgeStyle=none;startArrow=none;endArrow=block;startSize=9;endSize=9;spacingTop=0;spacingBottom=0;spacingLeft=0;spacingRight=0;verticalAlign=middle;html=1;labelBackgroundColor=#ffffff;rounded=0;exitX=0.5;exitY=1;exitDx=0;exitDy=0;exitPerimeter=0;entryX=0.5;entryY=0;entryDx=0;entryDy=0;entryPerimeter=0;" parent="2" edge="1"><mxGeometry relative="1" as="geometry"><mxPoint x="10" as="offset"/><Array as="points"/><mxPoint x="879.5" y="4561" as="targetPoint"/></mxGeometry></mxCell><mxCell id="357" style="vsdxID=973;edgeStyle=none;startArrow=none;endArrow=block;startSize=9;endSize=9;spacingTop=0;spacingBottom=0;spacingLeft=0;spacingRight=0;verticalAlign=middle;html=1;labelBackgroundColor=#ffffff;rounded=0;exitX=0.5;exitY=0;exitDx=0;exitDy=0;exitPerimeter=0;entryX=0;entryY=0.5;entryDx=0;entryDy=0;entryPerimeter=0;" parent="2" edge="1"><mxGeometry relative="1" as="geometry"><mxPoint x="-1" as="offset"/><Array as="points"><mxPoint x="754.5" y="4861"/></Array><mxPoint x="829.5" y="4861" as="targetPoint"/></mxGeometry></mxCell><mxCell id="358" value="&lt;font style=&quot;font-size:11px;font-family:SimSun;color:#000000;direction:ltr;letter-spacing:0px;line-height:120%;opacity:1&quot;&gt;否&lt;br/&gt;&lt;/font&gt;" style="vsdxID=910;edgeStyle=none;startArrow=none;endArrow=block;startSize=9;endSize=9;spacingTop=0;spacingBottom=0;spacingLeft=0;spacingRight=0;verticalAlign=middle;html=1;labelBackgroundColor=#FFFFFF;rounded=0;align=center;exitX=0;exitY=0.5;exitDx=0;exitDy=0;exitPerimeter=0;entryX=1;entryY=0.5;entryDx=0;entryDy=0;entryPerimeter=0;" parent="2" edge="1"><mxGeometry relative="1" as="geometry"><mxPoint as="offset"/><Array as="points"><mxPoint x="951" y="2992"/><mxPoint x="951" y="3500"/></Array><mxPoint x="966" y="2992" as="sourcePoint"/></mxGeometry></mxCell><mxCell id="359" value="" style="vsdxID=909;edgeStyle=none;startArrow=none;endArrow=block;startSize=9;endSize=9;spacingTop=0;spacingBottom=0;spacingLeft=0;spacingRight=0;verticalAlign=middle;html=1;labelBackgroundColor=#FFFFFF;rounded=0;align=center;exitX=0.5;exitY=1;exitDx=0;exitDy=0;exitPerimeter=0;entryX=0.5;entryY=0;entryDx=0;entryDy=0;entryPerimeter=0;" parent="2" edge="1"><mxGeometry relative="1" as="geometry"><mxPoint x="10" as="offset"/><Array as="points"/><mxPoint x="1027" y="2836" as="targetPoint"/></mxGeometry></mxCell><mxCell id="360" value="&lt;font style=&quot;font-size:11px;font-family:SimSun;color:#000000;direction:ltr;letter-spacing:0px;line-height:120%;opacity:1&quot;&gt;是&lt;br/&gt;&lt;/font&gt;" style="vsdxID=879;edgeStyle=none;startArrow=none;endArrow=block;startSize=9;endSize=9;spacingTop=0;spacingBottom=0;spacingLeft=0;spacingRight=0;verticalAlign=middle;html=1;labelBackgroundColor=#FFFFFF;rounded=0;align=center;exitX=1;exitY=0.5;exitDx=0;exitDy=0;exitPerimeter=0;entryX=0.5;entryY=0;entryDx=0;entryDy=0;entryPerimeter=0;" parent="2" edge="1"><mxGeometry relative="1" as="geometry"><mxPoint x="-1" as="offset"/><Array as="points"><mxPoint x="1530.7800000000002" y="2992"/></Array><mxPoint x="1531" y="3034" as="targetPoint"/></mxGeometry></mxCell><mxCell id="361" value="" style="vsdxID=876;edgeStyle=none;startArrow=none;endArrow=block;startSize=9;endSize=9;spacingTop=0;spacingBottom=0;spacingLeft=0;spacingRight=0;verticalAlign=middle;html=1;labelBackgroundColor=#FFFFFF;rounded=0;align=center;exitX=0.5;exitY=0;exitDx=0;exitDy=0;exitPerimeter=0;entryX=0;entryY=0.5;entryDx=0;entryDy=0;entryPerimeter=0;" parent="2" edge="1"><mxGeometry relative="1" as="geometry"><mxPoint y="-1" as="offset"/><Array as="points"><mxPoint x="854" y="2866.3"/></Array><mxPoint x="977" y="2866" as="targetPoint"/></mxGeometry></mxCell><mxCell id="362" style="vsdxID=825;edgeStyle=none;startArrow=none;endArrow=block;startSize=9;endSize=9;spacingTop=0;spacingBottom=0;spacingLeft=0;spacingRight=0;verticalAlign=middle;html=1;labelBackgroundColor=#FFFFFF;rounded=0;exitX=0.5;exitY=1;exitDx=0;exitDy=0;exitPerimeter=0;entryX=0.5;entryY=0;entryDx=0;entryDy=0;entryPerimeter=0;" parent="2" edge="1"><mxGeometry relative="1" as="geometry"><mxPoint x="10" as="offset"/><Array as="points"/><mxPoint x="1450" y="627" as="targetPoint"/></mxGeometry></mxCell><mxCell id="363" style="vsdxID=821;edgeStyle=none;startArrow=none;endArrow=block;startSize=9;endSize=9;spacingTop=0;spacingBottom=0;spacingLeft=0;spacingRight=0;verticalAlign=middle;html=1;labelBackgroundColor=#FFFFFF;rounded=0;exitX=0.5;exitY=1;exitDx=0;exitDy=0;exitPerimeter=0;entryX=0.5;entryY=0;entryDx=0;entryDy=0;entryPerimeter=0;" parent="2" edge="1"><mxGeometry relative="1" as="geometry"><mxPoint x="10" as="offset"/><Array as="points"/><mxPoint x="270" y="615" as="targetPoint"/></mxGeometry></mxCell><mxCell id="364" style="vsdxID=770;edgeStyle=none;startArrow=none;endArrow=block;startSize=9;endSize=9;spacingTop=0;spacingBottom=0;spacingLeft=0;spacingRight=0;verticalAlign=middle;html=1;labelBackgroundColor=#FFFFFF;rounded=0;exitX=0.5;exitY=1;exitDx=0;exitDy=0;exitPerimeter=0;entryX=0.5;entryY=0;entryDx=0;entryDy=0;entryPerimeter=0;" parent="2" edge="1"><mxGeometry relative="1" as="geometry"><mxPoint x="10" as="offset"/><Array as="points"/><mxPoint x="1260" y="479" as="sourcePoint"/></mxGeometry></mxCell><mxCell id="365" style="vsdxID=768;edgeStyle=none;startArrow=none;endArrow=block;startSize=9;endSize=9;spacingTop=0;spacingBottom=0;spacingLeft=0;spacingRight=0;verticalAlign=middle;html=1;labelBackgroundColor=#FFFFFF;rounded=0;exitX=0.5;exitY=1;exitDx=0;exitDy=0;exitPerimeter=0;entryX=0.5;entryY=0;entryDx=0;entryDy=0;entryPerimeter=0;" parent="2" edge="1"><mxGeometry relative="1" as="geometry"><mxPoint x="10" y="-1" as="offset"/><Array as="points"/><mxPoint x="1260" y="419" as="targetPoint"/></mxGeometry></mxCell><mxCell id="366" value="&lt;font style=&quot;font-size:11px;font-family:SimSun;color:#000000;direction:ltr;letter-spacing:0px;line-height:120%;opacity:1&quot;&gt;是&lt;br/&gt;&lt;/font&gt;" style="vsdxID=767;edgeStyle=none;startArrow=none;endArrow=block;startSize=9;endSize=9;spacingTop=0;spacingBottom=0;spacingLeft=0;spacingRight=0;verticalAlign=middle;html=1;labelBackgroundColor=#FFFFFF;rounded=0;align=center;exitX=0.5;exitY=1;exitDx=0;exitDy=0;exitPerimeter=0;entryX=0.5;entryY=0;entryDx=0;entryDy=0;entryPerimeter=0;" parent="2" edge="1"><mxGeometry relative="1" as="geometry"><mxPoint x="10" as="offset"/><Array as="points"/><mxPoint x="1260" y="297" as="sourcePoint"/></mxGeometry></mxCell><mxCell id="367" style="vsdxID=763;edgeStyle=none;startArrow=none;endArrow=block;startSize=9;endSize=9;spacingTop=0;spacingBottom=0;spacingLeft=0;spacingRight=0;verticalAlign=middle;html=1;labelBackgroundColor=#FFFFFF;rounded=0;exitX=0;exitY=0.5;exitDx=0;exitDy=0;exitPerimeter=0;entryX=1;entryY=0.5;entryDx=0;entryDy=0;entryPerimeter=0;" parent="2" edge="1"><mxGeometry relative="1" as="geometry"><mxPoint as="offset"/><Array as="points"/><mxPoint x="763" y="4100" as="targetPoint"/></mxGeometry></mxCell><mxCell id="368" style="vsdxID=753;edgeStyle=none;startArrow=none;endArrow=block;startSize=9;endSize=9;spacingTop=0;spacingBottom=0;spacingLeft=0;spacingRight=0;verticalAlign=middle;html=1;labelBackgroundColor=#FFFFFF;rounded=0;exitX=0.5;exitY=1;exitDx=0;exitDy=0;exitPerimeter=0;entryX=0.5;entryY=0;entryDx=0;entryDy=0;entryPerimeter=0;" parent="2" edge="1"><mxGeometry relative="1" as="geometry"><mxPoint x="10" as="offset"/><Array as="points"/><mxPoint x="1394" y="3430" as="sourcePoint"/></mxGeometry></mxCell><mxCell id="369" style="vsdxID=750;edgeStyle=none;startArrow=none;endArrow=block;startSize=9;endSize=9;spacingTop=0;spacingBottom=0;spacingLeft=0;spacingRight=0;verticalAlign=middle;html=1;labelBackgroundColor=#FFFFFF;rounded=0;exitX=0.5;exitY=1;exitDx=0;exitDy=0;exitPerimeter=0;entryX=0.5;entryY=0;entryDx=0;entryDy=0;entryPerimeter=0;" parent="2" edge="1"><mxGeometry relative="1" as="geometry"><mxPoint x="-5" as="offset"/><Array as="points"><mxPoint x="1027" y="2911"/><mxPoint x="1016.47" y="2911"/></Array><mxPoint x="1027" y="2896" as="sourcePoint"/></mxGeometry></mxCell><mxCell id="370" value="&lt;font style=&quot;font-size:11px;font-family:SimSun;color:#000000;direction:ltr;letter-spacing:0px;line-height:120%;opacity:1&quot;&gt;是&lt;br/&gt;&lt;/font&gt;" style="vsdxID=746;edgeStyle=none;startArrow=none;endArrow=block;startSize=9;endSize=9;spacingTop=0;spacingBottom=0;spacingLeft=0;spacingRight=0;verticalAlign=middle;html=1;labelBackgroundColor=#FFFFFF;rounded=0;align=center;exitX=1;exitY=0.5;exitDx=0;exitDy=0;exitPerimeter=0;entryX=0;entryY=0.5;entryDx=0;entryDy=0;entryPerimeter=0;" parent="2" edge="1"><mxGeometry relative="1" as="geometry"><mxPoint as="offset"/><Array as="points"/><mxPoint x="551" y="3082" as="sourcePoint"/></mxGeometry></mxCell><mxCell id="371" value="&lt;font style=&quot;font-size:11px;font-family:SimSun;color:#000000;direction:ltr;letter-spacing:0px;line-height:120%;opacity:1&quot;&gt;是&lt;br/&gt;&lt;/font&gt;" style="vsdxID=744;edgeStyle=none;startArrow=none;endArrow=block;startSize=9;endSize=9;spacingTop=0;spacingBottom=0;spacingLeft=0;spacingRight=0;verticalAlign=middle;html=1;labelBackgroundColor=#FFFFFF;rounded=0;align=center;exitX=0.5;exitY=1;exitDx=0;exitDy=0;exitPerimeter=0;entryX=0;entryY=0.5;entryDx=0;entryDy=0;entryPerimeter=0;" parent="2" edge="1"><mxGeometry relative="1" as="geometry"><mxPoint x="-1" as="offset"/><Array as="points"><mxPoint x="702" y="3131.7"/></Array><mxPoint x="702" y="3112" as="sourcePoint"/></mxGeometry></mxCell><mxCell id="372" style="vsdxID=432;edgeStyle=none;startArrow=none;endArrow=block;startSize=9;endSize=9;spacingTop=0;spacingBottom=0;spacingLeft=0;spacingRight=0;verticalAlign=middle;html=1;labelBackgroundColor=#ffffff;rounded=0;exitX=1;exitY=0.5;exitDx=0;exitDy=0;exitPerimeter=0;entryX=0;entryY=0.5;entryDx=0;entryDy=0;entryPerimeter=0;" parent="2" edge="1"><mxGeometry relative="1" as="geometry"><mxPoint as="offset"/><Array as="points"/><mxPoint x="580.5" y="4831" as="sourcePoint"/></mxGeometry></mxCell><mxCell id="373" style="vsdxID=422;edgeStyle=none;startArrow=none;endArrow=block;startSize=9;endSize=9;spacingTop=0;spacingBottom=0;spacingLeft=0;spacingRight=0;verticalAlign=middle;html=1;labelBackgroundColor=#FFFFFF;rounded=0;exitX=0.375;exitY=1;exitDx=0;exitDy=0;exitPerimeter=0;entryX=0.5;entryY=0;entryDx=0;entryDy=0;entryPerimeter=0;" parent="2" edge="1"><mxGeometry relative="1" as="geometry"><mxPoint x="10" as="offset"/><Array as="points"/><mxPoint x="1290" y="1156" as="targetPoint"/></mxGeometry></mxCell><mxCell id="374" value="" style="vsdxID=418;edgeStyle=none;startArrow=none;endArrow=block;startSize=9;endSize=9;spacingTop=0;spacingBottom=0;spacingLeft=0;spacingRight=0;verticalAlign=middle;html=1;labelBackgroundColor=#FFFFFF;rounded=0;align=center;exitX=0.5;exitY=0.5;exitDx=0;exitDy=0;exitPerimeter=0;entryX=0.5;entryY=0;entryDx=0;entryDy=0;entryPerimeter=0;" parent="2" edge="1"><mxGeometry relative="1" as="geometry"><mxPoint x="10" as="offset"/><Array as="points"/><mxPoint x="1531" y="3120" as="targetPoint"/></mxGeometry></mxCell><mxCell id="375" value="" style="vsdxID=371;edgeStyle=none;startArrow=none;endArrow=block;startSize=9;endSize=9;spacingTop=0;spacingBottom=0;spacingLeft=0;spacingRight=0;verticalAlign=middle;html=1;labelBackgroundColor=#FFFFFF;rounded=0;align=center;exitX=0.5;exitY=1;exitDx=0;exitDy=0;exitPerimeter=0;entryX=0.5;entryY=0;entryDx=0;entryDy=0;entryPerimeter=0;" parent="2" edge="1"><mxGeometry relative="1" as="geometry"><mxPoint x="10" as="offset"/><Array as="points"/><mxPoint x="1651" y="3370" as="targetPoint"/></mxGeometry></mxCell><mxCell id="376" style="vsdxID=362;edgeStyle=none;startArrow=none;endArrow=block;startSize=9;endSize=9;spacingTop=0;spacingBottom=0;spacingLeft=0;spacingRight=0;verticalAlign=middle;html=1;labelBackgroundColor=#FFFFFF;rounded=0;exitX=0.5;exitY=1;exitDx=0;exitDy=0;exitPerimeter=0;entryX=0.5;entryY=0;entryDx=0;entryDy=0;entryPerimeter=0;" parent="2" edge="1"><mxGeometry relative="1" as="geometry"><mxPoint x="10" as="offset"/><Array as="points"/><mxPoint x="1027" y="2720" as="sourcePoint"/></mxGeometry></mxCell><mxCell id="377" style="vsdxID=233;edgeStyle=none;startArrow=none;endArrow=block;startSize=9;endSize=9;spacingTop=0;spacingBottom=0;spacingLeft=0;spacingRight=0;verticalAlign=middle;html=1;labelBackgroundColor=#FFFFFF;rounded=0;exitX=0.5;exitY=1;exitDx=0;exitDy=0;exitPerimeter=0;entryX=1;entryY=0.5;entryDx=0;entryDy=0;entryPerimeter=0;" parent="2" edge="1"><mxGeometry relative="1" as="geometry"><mxPoint as="offset"/><Array as="points"><mxPoint x="1710" y="4030"/><mxPoint x="1397.5100000000002" y="4030"/><mxPoint x="937.73" y="4030"/><mxPoint x="937.73" y="3990"/></Array><mxPoint x="1710" y="4020" as="sourcePoint"/></mxGeometry></mxCell><mxCell id="378" value="&lt;font style=&quot;font-size:11px;font-family:SimSun;color:#000000;direction:ltr;letter-spacing:0px;line-height:120%;opacity:1&quot;&gt;是&lt;br/&gt;&lt;/font&gt;" style="vsdxID=10;edgeStyle=none;startArrow=none;endArrow=block;startSize=9;endSize=9;spacingTop=0;spacingBottom=0;spacingLeft=0;spacingRight=0;verticalAlign=middle;html=1;labelBackgroundColor=#FFFFFF;rounded=0;align=center;exitX=0.5;exitY=1;exitDx=0;exitDy=0;exitPerimeter=0;entryX=0.5;entryY=0;entryDx=0;entryDy=0;entryPerimeter=0;" parent="2" edge="1"><mxGeometry relative="1" as="geometry"><mxPoint x="10" as="offset"/><Array as="points"/><mxPoint x="730" y="588" as="sourcePoint"/></mxGeometry></mxCell><mxCell id="379" style="vsdxID=9;edgeStyle=none;startArrow=none;endArrow=block;startSize=9;endSize=9;spacingTop=0;spacingBottom=0;spacingLeft=0;spacingRight=0;verticalAlign=middle;html=1;labelBackgroundColor=#FFFFFF;rounded=0;exitX=0.5;exitY=1;exitDx=0;exitDy=0;exitPerimeter=0;entryX=0.5;entryY=0;entryDx=0;entryDy=0;entryPerimeter=0;" parent="2" edge="1"><mxGeometry relative="1" as="geometry"><mxPoint x="10" as="offset"/><Array as="points"/><mxPoint x="730" y="1096" as="sourcePoint"/></mxGeometry></mxCell><mxCell id="380" value="&lt;font style=&quot;font-size:11px;font-family:SimSun;color:#000000;direction:ltr;letter-spacing:0px;line-height:120%;opacity:1&quot;&gt;否&lt;br/&gt;&lt;/font&gt;" style="vsdxID=6;edgeStyle=none;startArrow=none;endArrow=block;startSize=9;endSize=9;spacingTop=0;spacingBottom=0;spacingLeft=0;spacingRight=0;verticalAlign=middle;html=1;labelBackgroundColor=#FFFFFF;rounded=0;align=center;exitX=1;exitY=0.5;exitDx=0;exitDy=0;exitPerimeter=0;entryX=1;entryY=0.5;entryDx=0;entryDy=0;entryPerimeter=0;" parent="2" edge="1"><mxGeometry relative="1" as="geometry"><mxPoint x="10" as="offset"/><Array as="points"><mxPoint x="810.8299999999999" y="558"/><mxPoint x="810.8299999999999" y="458"/></Array><mxPoint x="780" y="458" as="targetPoint"/></mxGeometry></mxCell><mxCell id="381" style="vsdxID=5;edgeStyle=none;startArrow=none;endArrow=block;startSize=9;endSize=9;spacingTop=0;spacingBottom=0;spacingLeft=0;spacingRight=0;verticalAlign=middle;html=1;labelBackgroundColor=#FFFFFF;rounded=0;exitX=0.5;exitY=1;exitDx=0;exitDy=0;exitPerimeter=0;entryX=0.5;entryY=0;entryDx=0;entryDy=0;entryPerimeter=0;" parent="2" edge="1"><mxGeometry relative="1" as="geometry"><mxPoint x="10" as="offset"/><Array as="points"/><mxPoint x="730" y="488" as="sourcePoint"/></mxGeometry></mxCell><mxCell id="382" style="vsdxID=3;edgeStyle=none;startArrow=none;endArrow=block;startSize=9;endSize=9;spacingTop=0;spacingBottom=0;spacingLeft=0;spacingRight=0;verticalAlign=middle;html=1;labelBackgroundColor=#ffffff;rounded=0;exitX=0.5;exitY=1;exitDx=0;exitDy=0;exitPerimeter=0;entryX=0.5;entryY=0;entryDx=0;entryDy=0;entryPerimeter=0;" parent="2" edge="1"><mxGeometry relative="1" as="geometry"><mxPoint x="10" as="offset"/><Array as="points"/><mxPoint x="730" y="375" as="sourcePoint"/></mxGeometry></mxCell><mxCell id="383" value="&lt;font style=&quot;font-size:11px;font-family:SimSun;color:#000000;direction:ltr;letter-spacing:0px;line-height:120%;opacity:1&quot;&gt;是&lt;br/&gt;&lt;/font&gt;" style="vsdxID=12;edgeStyle=none;startArrow=none;endArrow=block;startSize=9;endSize=9;spacingTop=0;spacingBottom=0;spacingLeft=0;spacingRight=0;verticalAlign=middle;html=1;labelBackgroundColor=#FFFFFF;rounded=0;align=center;exitX=1;exitY=0.5;exitDx=0;exitDy=0;exitPerimeter=0;entryX=0;entryY=0.5;entryDx=0;entryDy=0;entryPerimeter=0;" parent="2" edge="1"><mxGeometry relative="1" as="geometry"><mxPoint as="offset"/><Array as="points"/><mxPoint x="780" y="1066" as="sourcePoint"/></mxGeometry></mxCell><mxCell id="384" value="&lt;font style=&quot;font-size:11px;font-family:SimSun;color:#000000;direction:ltr;letter-spacing:0px;line-height:120%;opacity:1&quot;&gt;是&lt;br/&gt;&lt;/font&gt;" style="vsdxID=15;edgeStyle=none;startArrow=none;endArrow=block;startSize=9;endSize=9;spacingTop=0;spacingBottom=0;spacingLeft=0;spacingRight=0;verticalAlign=middle;html=1;labelBackgroundColor=#FFFFFF;rounded=0;align=center;exitX=0;exitY=0.5;exitDx=0;exitDy=0;exitPerimeter=0;entryX=0.5;entryY=0;entryDx=0;entryDy=0;entryPerimeter=0;" parent="2" edge="1"><mxGeometry relative="1" as="geometry"><mxPoint x="-1" as="offset"/><Array as="points"><mxPoint x="730" y="1186"/></Array><mxPoint x="830" y="1186" as="sourcePoint"/></mxGeometry></mxCell><mxCell id="385" value="&lt;font style=&quot;font-size:11px;font-family:SimSun;color:#000000;direction:ltr;letter-spacing:0px;line-height:120%;opacity:1&quot;&gt;确认&lt;br/&gt;&lt;/font&gt;" style="vsdxID=21;edgeStyle=none;startArrow=none;endArrow=block;startSize=9;endSize=9;spacingTop=0;spacingBottom=0;spacingLeft=0;spacingRight=0;verticalAlign=middle;html=1;labelBackgroundColor=#FFFFFF;rounded=0;align=center;exitX=0.5;exitY=1;exitDx=0;exitDy=0;exitPerimeter=0;entryX=0.5;entryY=0;entryDx=0;entryDy=0;entryPerimeter=0;" parent="2" edge="1"><mxGeometry relative="1" as="geometry"><mxPoint x="10" y="-1" as="offset"/><Array as="points"/><mxPoint x="730" y="1372" as="targetPoint"/></mxGeometry></mxCell><mxCell id="386" value="&lt;font style=&quot;font-size:11px;font-family:SimSun;color:#000000;direction:ltr;letter-spacing:0px;line-height:120%;opacity:1&quot;&gt;否&lt;br/&gt;&lt;/font&gt;" style="vsdxID=22;edgeStyle=none;startArrow=none;endArrow=block;startSize=9;endSize=9;spacingTop=0;spacingBottom=0;spacingLeft=0;spacingRight=0;verticalAlign=middle;html=1;labelBackgroundColor=#FFFFFF;rounded=0;align=center;exitX=0.5;exitY=1;exitDx=0;exitDy=0;exitPerimeter=0;entryX=0.5;entryY=0;entryDx=0;entryDy=0;entryPerimeter=0;" parent="2" edge="1"><mxGeometry relative="1" as="geometry"><mxPoint x="10" as="offset"/><Array as="points"/><mxPoint x="730" y="1478" as="targetPoint"/></mxGeometry></mxCell><mxCell id="387" value="&lt;font style=&quot;font-size:11px;font-family:SimSun;color:#000000;direction:ltr;letter-spacing:0px;line-height:120%;opacity:1&quot;&gt;否&lt;br/&gt;&lt;/font&gt;" style="vsdxID=226;edgeStyle=none;startArrow=none;endArrow=block;startSize=9;endSize=9;spacingTop=0;spacingBottom=0;spacingLeft=0;spacingRight=0;verticalAlign=middle;html=1;labelBackgroundColor=#FFFFFF;rounded=0;align=center;exitX=1;exitY=0.5;exitDx=0;exitDy=0;exitPerimeter=0;entryX=0.5;entryY=0;entryDx=0;entryDy=0;entryPerimeter=0;" parent="2" edge="1"><mxGeometry relative="1" as="geometry"><mxPoint x="-1" as="offset"/><Array as="points"><mxPoint x="1651" y="3150"/></Array><mxPoint x="1581" y="3150" as="sourcePoint"/></mxGeometry></mxCell><mxCell id="388" style="vsdxID=1024;edgeStyle=none;startArrow=none;endArrow=none;startSize=9;endSize=9;spacingTop=0;spacingBottom=0;spacingLeft=0;spacingRight=0;verticalAlign=middle;html=1;labelBackgroundColor=#ffffff;rounded=0;exitX=0;exitY=0.5;exitDx=0;exitDy=0;exitPerimeter=0;entryX=0.5;entryY=0;entryDx=0;entryDy=0;entryPerimeter=0;" parent="2" edge="1"><mxGeometry relative="1" as="geometry"><mxPoint y="-1" as="offset"/><Array as="points"><mxPoint x="813.53" y="825"/></Array><mxPoint x="872" y="825" as="sourcePoint"/></mxGeometry></mxCell><mxCell id="389" style="vsdxID=1021;edgeStyle=none;startArrow=none;endArrow=block;startSize=9;endSize=9;spacingTop=0;spacingBottom=0;spacingLeft=0;spacingRight=0;verticalAlign=middle;html=1;labelBackgroundColor=#ffffff;rounded=0;exitX=0.5;exitY=1;exitDx=0;exitDy=0;exitPerimeter=0;entryX=0.5;entryY=0;entryDx=0;entryDy=0;entryPerimeter=0;" parent="2" edge="1"><mxGeometry relative="1" as="geometry"><mxPoint x="10" as="offset"/><Array as="points"/><mxPoint x="843" y="3765" as="sourcePoint"/></mxGeometry></mxCell><mxCell id="390" style="vsdxID=1010;edgeStyle=none;startArrow=none;endArrow=block;startSize=9;endSize=9;spacingTop=0;spacingBottom=0;spacingLeft=0;spacingRight=0;verticalAlign=middle;html=1;labelBackgroundColor=#ffffff;rounded=0;exitX=0.5;exitY=1;exitDx=0;exitDy=0;exitPerimeter=0;entryX=1;entryY=0.5;entryDx=0;entryDy=0;entryPerimeter=0;" parent="2" edge="1"><mxGeometry relative="1" as="geometry"><mxPoint as="offset"/><Array as="points"><mxPoint x="772.5" y="6071"/><mxPoint x="334.30999999999995" y="6071"/><mxPoint x="334.30999999999995" y="6034.6"/></Array><mxPoint x="318.5" y="6034" as="targetPoint"/></mxGeometry></mxCell><mxCell id="391" style="vsdxID=1009;edgeStyle=none;startArrow=none;endArrow=block;startSize=9;endSize=9;spacingTop=0;spacingBottom=0;spacingLeft=0;spacingRight=0;verticalAlign=middle;html=1;labelBackgroundColor=#ffffff;rounded=0;exitX=0;exitY=0.5;exitDx=0;exitDy=0;exitPerimeter=0;entryX=1;entryY=0.5;entryDx=0;entryDy=0;entryPerimeter=0;" parent="2" edge="1"><mxGeometry relative="1" as="geometry"><mxPoint x="-1" as="offset"/><Array as="points"/><mxPoint x="1360.5" y="6031" as="sourcePoint"/></mxGeometry></mxCell><mxCell id="392" style="vsdxID=1008;edgeStyle=none;startArrow=none;endArrow=block;startSize=9;endSize=9;spacingTop=0;spacingBottom=0;spacingLeft=0;spacingRight=0;verticalAlign=middle;html=1;labelBackgroundColor=#ffffff;rounded=0;exitX=0.5;exitY=1;exitDx=0;exitDy=0;exitPerimeter=0;entryX=1;entryY=0.5;entryDx=0;entryDy=0;entryPerimeter=0;" parent="2" edge="1"><mxGeometry relative="1" as="geometry"><mxPoint x="-1" as="offset"/><Array as="points"><mxPoint x="773.5" y="5826"/></Array><mxPoint x="325.5" y="5826" as="targetPoint"/></mxGeometry></mxCell><mxCell id="393" style="vsdxID=999;edgeStyle=none;startArrow=none;endArrow=block;startSize=9;endSize=9;spacingTop=0;spacingBottom=0;spacingLeft=0;spacingRight=0;verticalAlign=middle;html=1;labelBackgroundColor=#ffffff;rounded=0;exitX=1;exitY=0.5;exitDx=0;exitDy=0;exitPerimeter=0;entryX=0;entryY=0.5;entryDx=0;entryDy=0;entryPerimeter=0;" parent="2" edge="1"><mxGeometry relative="1" as="geometry"><mxPoint as="offset"/><Array as="points"/><mxPoint x="774.5" y="5306" as="targetPoint"/></mxGeometry></mxCell><mxCell id="394" style="vsdxID=998;edgeStyle=none;startArrow=none;endArrow=block;startSize=9;endSize=9;spacingTop=0;spacingBottom=0;spacingLeft=0;spacingRight=0;verticalAlign=middle;html=1;labelBackgroundColor=#ffffff;rounded=0;exitX=0;exitY=0.5;exitDx=0;exitDy=0;exitPerimeter=0;entryX=1;entryY=0.5;entryDx=0;entryDy=0;entryPerimeter=0;" parent="2" edge="1"><mxGeometry relative="1" as="geometry"><mxPoint x="-1" as="offset"/><Array as="points"/><mxPoint x="284.5" y="5306" as="sourcePoint"/></mxGeometry></mxCell><mxCell id="395" style="vsdxID=983;edgeStyle=none;startArrow=none;endArrow=block;startSize=9;endSize=9;spacingTop=0;spacingBottom=0;spacingLeft=0;spacingRight=0;verticalAlign=middle;html=1;labelBackgroundColor=#ffffff;rounded=0;exitX=0;exitY=0.5;exitDx=0;exitDy=0;exitPerimeter=0;entryX=1;entryY=0.5;entryDx=0;entryDy=0;entryPerimeter=0;" parent="2" edge="1"><mxGeometry relative="1" as="geometry"><mxPoint x="-1" as="offset"/><Array as="points"/><mxPoint x="874.5" y="5306" as="targetPoint"/></mxGeometry></mxCell><mxCell id="396" style="vsdxID=981;edgeStyle=none;startArrow=none;endArrow=block;startSize=9;endSize=9;spacingTop=0;spacingBottom=0;spacingLeft=0;spacingRight=0;verticalAlign=middle;html=1;labelBackgroundColor=#ffffff;rounded=0;exitX=0.5;exitY=1;exitDx=0;exitDy=0;exitPerimeter=0;entryX=0.5;entryY=0;entryDx=0;entryDy=0;entryPerimeter=0;" parent="2" edge="1"><mxGeometry relative="1" as="geometry"><mxPoint as="offset"/><Array as="points"><mxPoint x="1004.5" y="4906"/><mxPoint x="1074.13" y="4906"/></Array><mxPoint x="1004.5" y="4891" as="sourcePoint"/></mxGeometry></mxCell><mxCell id="397" style="vsdxID=972;edgeStyle=none;startArrow=none;endArrow=block;startSize=9;endSize=9;spacingTop=0;spacingBottom=0;spacingLeft=0;spacingRight=0;verticalAlign=middle;html=1;labelBackgroundColor=#ffffff;rounded=0;exitX=0.5;exitY=1;exitDx=0;exitDy=0;exitPerimeter=0;entryX=0.5;entryY=0;entryDx=0;entryDy=0;entryPerimeter=0;" parent="2" edge="1"><mxGeometry relative="1" as="geometry"><mxPoint x="-10" y="-1" as="offset"/><Array as="points"><mxPoint x="754.5" y="4966"/><mxPoint x="752.9000000000001" y="4966"/></Array><mxPoint x="753.5" y="4991" as="targetPoint"/></mxGeometry></mxCell><mxCell id="398" style="vsdxID=971;edgeStyle=none;startArrow=none;endArrow=block;startSize=9;endSize=9;spacingTop=0;spacingBottom=0;spacingLeft=0;spacingRight=0;verticalAlign=middle;html=1;labelBackgroundColor=#ffffff;rounded=0;exitX=0.5;exitY=1;exitDx=0;exitDy=0;exitPerimeter=0;entryX=0;entryY=0.5;entryDx=0;entryDy=0;entryPerimeter=0;" parent="2" edge="1"><mxGeometry relative="1" as="geometry"><mxPoint as="offset"/><Array as="points"><mxPoint x="660.5" y="4921"/></Array><mxPoint x="660.5" y="4861" as="sourcePoint"/></mxGeometry></mxCell><mxCell id="399" value="&lt;font style=&quot;font-size:11px;font-family:SimSun;color:#000000;direction:ltr;letter-spacing:0px;line-height:120%;opacity:1&quot;&gt;否&lt;br/&gt;&lt;/font&gt;" style="vsdxID=969;edgeStyle=none;startArrow=none;endArrow=block;startSize=9;endSize=9;spacingTop=0;spacingBottom=0;spacingLeft=0;spacingRight=0;verticalAlign=middle;html=1;labelBackgroundColor=#ffffff;rounded=0;align=center;exitX=0.5;exitY=0;exitDx=0;exitDy=0;exitPerimeter=0;entryX=0.5;entryY=0.5;entryDx=0;entryDy=0;entryPerimeter=0;" parent="2" edge="1"><mxGeometry relative="1" as="geometry"><mxPoint as="offset"/><Array as="points"><mxPoint x="660.5" y="4786"/><mxPoint x="876.4300000000001" y="4786"/><mxPoint x="1411.27" y="4786"/></Array><mxPoint x="1411.5" y="4861" as="targetPoint"/></mxGeometry></mxCell><mxCell id="400" style="vsdxID=953;edgeStyle=none;startArrow=none;endArrow=block;startSize=9;endSize=9;spacingTop=0;spacingBottom=0;spacingLeft=0;spacingRight=0;verticalAlign=middle;html=1;labelBackgroundColor=#ffffff;rounded=0;exitX=0.5;exitY=1;exitDx=0;exitDy=0;exitPerimeter=0;entryX=0.5;entryY=0;entryDx=0;entryDy=0;entryPerimeter=0;" parent="2" edge="1"><mxGeometry relative="1" as="geometry"><mxPoint x="10" as="offset"/><Array as="points"/><mxPoint x="255.5" y="4561" as="targetPoint"/></mxGeometry></mxCell><mxCell id="401" style="vsdxID=937;edgeStyle=none;startArrow=none;endArrow=block;startSize=9;endSize=9;spacingTop=0;spacingBottom=0;spacingLeft=0;spacingRight=0;verticalAlign=middle;html=1;labelBackgroundColor=#FFFFFF;rounded=0;exitX=0.5;exitY=1;exitDx=0;exitDy=0;exitPerimeter=0;entryX=0.5;entryY=0;entryDx=0;entryDy=0;entryPerimeter=0;" parent="2" edge="1"><mxGeometry relative="1" as="geometry"><mxPoint x="-1" as="offset"/><Array as="points"><mxPoint x="1252" y="3915.9300000000003"/><mxPoint x="1394.5700000000002" y="3915.9300000000003"/></Array><mxPoint x="1394" y="3950" as="targetPoint"/></mxGeometry></mxCell><mxCell id="402" style="vsdxID=936;edgeStyle=none;startArrow=none;endArrow=block;startSize=9;endSize=9;spacingTop=0;spacingBottom=0;spacingLeft=0;spacingRight=0;verticalAlign=middle;html=1;labelBackgroundColor=#FFFFFF;rounded=0;exitX=0;exitY=0.5;exitDx=0;exitDy=0;exitPerimeter=0;entryX=1;entryY=0.5;entryDx=0;entryDy=0;entryPerimeter=0;" parent="2" edge="1"><mxGeometry relative="1" as="geometry"><mxPoint x="-1" as="offset"/><Array as="points"/><mxPoint x="893" y="3735" as="targetPoint"/></mxGeometry></mxCell><mxCell id="403" style="vsdxID=922;edgeStyle=none;startArrow=none;endArrow=block;startSize=9;endSize=9;spacingTop=0;spacingBottom=0;spacingLeft=0;spacingRight=0;verticalAlign=middle;html=1;labelBackgroundColor=#FFFFFF;rounded=0;exitX=0.5;exitY=0;exitDx=0;exitDy=0;exitPerimeter=0;entryX=1;entryY=0.5;entryDx=0;entryDy=0;entryPerimeter=0;" parent="2" edge="1"><mxGeometry relative="1" as="geometry"><mxPoint x="-1" as="offset"/><Array as="points"><mxPoint x="873" y="3950"/></Array><mxPoint x="873" y="3960" as="sourcePoint"/></mxGeometry></mxCell><mxCell id="404" style="vsdxID=921;edgeStyle=none;startArrow=none;endArrow=none;startSize=9;endSize=9;spacingTop=0;spacingBottom=0;spacingLeft=0;spacingRight=0;verticalAlign=middle;html=1;labelBackgroundColor=#ffffff;rounded=0;exitX=0;exitY=0.5;exitDx=0;exitDy=0;exitPerimeter=0;entryX=1;entryY=0.5;entryDx=0;entryDy=0;entryPerimeter=0;" parent="2" edge="1"><mxGeometry relative="1" as="geometry"><mxPoint as="offset"/><Array as="points"><mxPoint x="500.27" y="3735"/><mxPoint x="500.27" y="3499.9300000000003"/></Array><mxPoint x="305" y="3500" as="targetPoint"/></mxGeometry></mxCell><mxCell id="405" value="&lt;font style=&quot;font-size:11px;font-family:SimSun;color:#000000;direction:ltr;letter-spacing:0px;line-height:120%;opacity:1&quot;&gt;是&lt;br/&gt;&lt;/font&gt;" style="vsdxID=920;edgeStyle=none;startArrow=none;endArrow=block;startSize=9;endSize=9;spacingTop=0;spacingBottom=0;spacingLeft=0;spacingRight=0;verticalAlign=middle;html=1;labelBackgroundColor=#FFFFFF;rounded=0;align=center;exitX=0;exitY=0.5;exitDx=0;exitDy=0;exitPerimeter=0;entryX=1;entryY=0.5;entryDx=0;entryDy=0;entryPerimeter=0;" parent="2" edge="1"><mxGeometry relative="1" as="geometry"><mxPoint y="-1" as="offset"/><Array as="points"><mxPoint x="1329" y="3670"/><mxPoint x="1329" y="3734.6099999999997"/></Array><mxPoint x="1344" y="3670" as="sourcePoint"/></mxGeometry></mxCell><mxCell id="406" value="&lt;font style=&quot;font-size:11px;font-family:SimSun;color:#000000;direction:ltr;letter-spacing:0px;line-height:120%;opacity:1&quot;&gt;否&lt;br/&gt;&lt;/font&gt;" style="vsdxID=916;edgeStyle=none;startArrow=none;endArrow=block;startSize=9;endSize=9;spacingTop=0;spacingBottom=0;spacingLeft=0;spacingRight=0;verticalAlign=middle;html=1;labelBackgroundColor=#FFFFFF;rounded=0;align=center;exitX=1;exitY=0.5;exitDx=0;exitDy=0;exitPerimeter=0;entryX=0;entryY=0.5;entryDx=0;entryDy=0;entryPerimeter=0;" parent="2" edge="1"><mxGeometry relative="1" as="geometry"><mxPoint as="offset"/><Array as="points"><mxPoint x="1539.8200000000002" y="3670"/><mxPoint x="1539.8200000000002" y="3220"/></Array><mxPoint x="1601" y="3220" as="targetPoint"/></mxGeometry></mxCell><mxCell id="407" style="vsdxID=915;edgeStyle=none;startArrow=none;endArrow=block;startSize=9;endSize=9;spacingTop=0;spacingBottom=0;spacingLeft=0;spacingRight=0;verticalAlign=middle;html=1;labelBackgroundColor=#FFFFFF;rounded=0;exitX=0.5;exitY=1;exitDx=0;exitDy=0;exitPerimeter=0;entryX=0.5;entryY=0;entryDx=0;entryDy=0;entryPerimeter=0;" parent="2" edge="1"><mxGeometry relative="1" as="geometry"><mxPoint x="10" as="offset"/><Array as="points"/><mxPoint x="1394" y="3610" as="sourcePoint"/></mxGeometry></mxCell><mxCell id="408" style="vsdxID=913;edgeStyle=none;startArrow=none;endArrow=block;startSize=9;endSize=9;spacingTop=0;spacingBottom=0;spacingLeft=0;spacingRight=0;verticalAlign=middle;html=1;labelBackgroundColor=#FFFFFF;rounded=0;exitX=0.5;exitY=1;exitDx=0;exitDy=0;exitPerimeter=0;entryX=0.5;entryY=0;entryDx=0;entryDy=0;entryPerimeter=0;" parent="2" edge="1"><mxGeometry relative="1" as="geometry"><mxPoint x="10" as="offset"/><Array as="points"/><mxPoint x="1394" y="3520" as="sourcePoint"/></mxGeometry></mxCell><mxCell id="409" style="vsdxID=907;edgeStyle=none;startArrow=none;endArrow=block;startSize=9;endSize=9;spacingTop=0;spacingBottom=0;spacingLeft=0;spacingRight=0;verticalAlign=middle;html=1;labelBackgroundColor=#FFFFFF;rounded=0;exitX=0.5;exitY=1;exitDx=0;exitDy=0;exitPerimeter=0;entryX=0.5;entryY=0;entryDx=0;entryDy=0;entryPerimeter=0;" parent="2" edge="1"><mxGeometry relative="1" as="geometry"><mxPoint x="10" as="offset"/><Array as="points"/><mxPoint x="1027" y="2570" as="targetPoint"/></mxGeometry></mxCell><mxCell id="410" style="vsdxID=893;edgeStyle=none;startArrow=none;endArrow=block;startSize=9;endSize=9;spacingTop=0;spacingBottom=0;spacingLeft=0;spacingRight=0;verticalAlign=middle;html=1;labelBackgroundColor=#ffffff;rounded=0;exitX=0.5;exitY=1;exitDx=0;exitDy=0;exitPerimeter=0;entryX=0.5;entryY=0;entryDx=0;entryDy=0;entryPerimeter=0;" parent="2" edge="1"><mxGeometry relative="1" as="geometry"><mxPoint x="10" as="offset"/><Array as="points"/><mxPoint x="255" y="2746" as="targetPoint"/></mxGeometry></mxCell><mxCell id="411" style="vsdxID=874;edgeStyle=none;startArrow=none;endArrow=block;startSize=9;endSize=9;spacingTop=0;spacingBottom=0;spacingLeft=0;spacingRight=0;verticalAlign=middle;html=1;labelBackgroundColor=#FFFFFF;rounded=0;exitX=0.5;exitY=1;exitDx=0;exitDy=0;exitPerimeter=0;entryX=0.5;entryY=0;entryDx=0;entryDy=0;entryPerimeter=0;" parent="2" edge="1"><mxGeometry relative="1" as="geometry"><mxPoint x="10" as="offset"/><Array as="points"/><mxPoint x="255" y="3530" as="sourcePoint"/></mxGeometry></mxCell><mxCell id="412" style="vsdxID=860;edgeStyle=none;startArrow=none;endArrow=block;startSize=9;endSize=9;spacingTop=0;spacingBottom=0;spacingLeft=0;spacingRight=0;verticalAlign=middle;html=1;labelBackgroundColor=#FFFFFF;rounded=0;exitX=0;exitY=0.5;exitDx=0;exitDy=0;exitPerimeter=0;entryX=1;entryY=0.5;entryDx=0;entryDy=0;entryPerimeter=0;" parent="2" edge="1"><mxGeometry relative="1" as="geometry"><mxPoint as="offset"/><Array as="points"><mxPoint x="500" y="3500"/><mxPoint x="500" y="3500"/></Array><mxPoint x="590" y="3500" as="sourcePoint"/></mxGeometry></mxCell><mxCell id="413" style="vsdxID=855;edgeStyle=none;startArrow=none;endArrow=block;startSize=9;endSize=9;strokeColor=#000000;spacingTop=0;spacingBottom=0;spacingLeft=0;spacingRight=0;verticalAlign=middle;html=1;labelBackgroundColor=#ffffff;rounded=0;exitX=0.5;exitY=1;exitDx=0;exitDy=0;exitPerimeter=0;entryX=0.5;entryY=0;entryDx=0;entryDy=0;entryPerimeter=0;" parent="2" edge="1"><mxGeometry relative="1" as="geometry"><mxPoint x="10" y="-1" as="offset"/><Array as="points"/><mxPoint x="230" y="2107" as="sourcePoint"/></mxGeometry></mxCell><mxCell id="414" style="vsdxID=841;edgeStyle=none;startArrow=none;endArrow=block;startSize=9;endSize=9;strokeColor=#000000;spacingTop=0;spacingBottom=0;spacingLeft=0;spacingRight=0;verticalAlign=middle;html=1;labelBackgroundColor=#FFFFFF;rounded=0;exitX=0;exitY=0.5;exitDx=0;exitDy=0;exitPerimeter=0;entryX=1;entryY=0.5;entryDx=0;entryDy=0;entryPerimeter=0;" parent="2" edge="1"><mxGeometry relative="1" as="geometry"><mxPoint as="offset"/><Array as="points"/><mxPoint x="280" y="2077" as="targetPoint"/></mxGeometry></mxCell><mxCell id="415" style="vsdxID=838;edgeStyle=none;startArrow=none;endArrow=none;startSize=9;endSize=9;spacingTop=0;spacingBottom=0;spacingLeft=0;spacingRight=0;verticalAlign=middle;html=1;labelBackgroundColor=#ffffff;rounded=0;exitX=0;exitY=0.5;exitDx=0;exitDy=0;exitPerimeter=0;entryX=1;entryY=0.5;entryDx=0;entryDy=0;entryPerimeter=0;" parent="2" edge="1"><mxGeometry relative="1" as="geometry"><mxPoint as="offset"/><Array as="points"/><mxPoint x="284" y="1697" as="targetPoint"/></mxGeometry></mxCell><mxCell id="416" style="vsdxID=837;edgeStyle=none;startArrow=none;endArrow=block;startSize=9;endSize=9;spacingTop=0;spacingBottom=0;spacingLeft=0;spacingRight=0;verticalAlign=middle;html=1;labelBackgroundColor=#FFFFFF;rounded=0;exitX=0.5;exitY=1;exitDx=0;exitDy=0;exitPerimeter=0;entryX=0.5;entryY=0;entryDx=0;entryDy=0;entryPerimeter=0;" parent="2" edge="1"><mxGeometry relative="1" as="geometry"><mxPoint x="10" as="offset"/><Array as="points"/><mxPoint x="534" y="1637" as="sourcePoint"/></mxGeometry></mxCell><mxCell id="417" style="vsdxID=834;edgeStyle=none;startArrow=none;endArrow=block;startSize=9;endSize=9;spacingTop=0;spacingBottom=0;spacingLeft=0;spacingRight=0;verticalAlign=middle;html=1;labelBackgroundColor=#FFFFFF;rounded=0;exitX=1;exitY=0.5;exitDx=0;exitDy=0;exitPerimeter=0;entryX=1;entryY=0.5;entryDx=0;entryDy=0;entryPerimeter=0;" parent="2" edge="1"><mxGeometry relative="1" as="geometry"><mxPoint as="offset"/><Array as="points"><mxPoint x="1599" y="1677"/><mxPoint x="1599" y="1827"/><mxPoint x="1397.33" y="1827"/><mxPoint x="814" y="1827"/><mxPoint x="814" y="1697"/></Array><mxPoint x="750" y="1697" as="targetPoint"/></mxGeometry></mxCell><mxCell id="418" style="vsdxID=833;edgeStyle=none;startArrow=none;endArrow=block;startSize=9;endSize=9;spacingTop=0;spacingBottom=0;spacingLeft=0;spacingRight=0;verticalAlign=middle;html=1;labelBackgroundColor=#FFFFFF;rounded=0;exitX=0;exitY=0.5;exitDx=0;exitDy=0;exitPerimeter=0;entryX=1;entryY=0.5;entryDx=0;entryDy=0;entryPerimeter=0;" parent="2" edge="1"><mxGeometry relative="1" as="geometry"><mxPoint as="offset"/><Array as="points"><mxPoint x="1384.77" y="1677"/><mxPoint x="1384.77" y="1467"/></Array><mxPoint x="1340" y="1467" as="targetPoint"/></mxGeometry></mxCell><mxCell id="419" style="vsdxID=832;edgeStyle=none;startArrow=none;endArrow=block;startSize=9;endSize=9;spacingTop=0;spacingBottom=0;spacingLeft=0;spacingRight=0;verticalAlign=middle;html=1;labelBackgroundColor=#FFFFFF;rounded=0;exitX=0.5;exitY=1;exitDx=0;exitDy=0;exitPerimeter=0;entryX=0.5;entryY=0;entryDx=0;entryDy=0;entryPerimeter=0;" parent="2" edge="1"><mxGeometry relative="1" as="geometry"><mxPoint x="10" as="offset"/><Array as="points"/><mxPoint x="1534" y="1617" as="sourcePoint"/></mxGeometry></mxCell><mxCell id="420" style="vsdxID=830;edgeStyle=none;startArrow=none;endArrow=block;startSize=9;endSize=9;spacingTop=0;spacingBottom=0;spacingLeft=0;spacingRight=0;verticalAlign=middle;html=1;labelBackgroundColor=#FFFFFF;rounded=0;exitX=0.5;exitY=1;exitDx=0;exitDy=0;exitPerimeter=0;entryX=0.5;entryY=0;entryDx=0;entryDy=0;entryPerimeter=0;" parent="2" edge="1"><mxGeometry relative="1" as="geometry"><mxPoint x="10" as="offset"/><Array as="points"/><mxPoint x="1290" y="1557" as="targetPoint"/></mxGeometry></mxCell><mxCell id="421" style="vsdxID=828;edgeStyle=none;startArrow=none;endArrow=none;startSize=9;endSize=9;spacingTop=0;spacingBottom=0;spacingLeft=0;spacingRight=0;verticalAlign=middle;html=1;labelBackgroundColor=#ffffff;rounded=0;exitX=0;exitY=0.5;exitDx=0;exitDy=0;exitPerimeter=0;entryX=1;entryY=0.5;entryDx=0;entryDy=0;entryPerimeter=0;" parent="2" edge="1"><mxGeometry relative="1" as="geometry"><mxPoint x="-1" as="offset"/><Array as="points"><mxPoint x="1195" y="827"/><mxPoint x="1195" y="825.7"/></Array><mxPoint x="972" y="825" as="targetPoint"/></mxGeometry></mxCell><mxCell id="422" style="vsdxID=823;edgeStyle=none;startArrow=none;endArrow=block;startSize=9;endSize=9;spacingTop=0;spacingBottom=0;spacingLeft=0;spacingRight=0;verticalAlign=middle;html=1;labelBackgroundColor=#FFFFFF;rounded=0;exitX=0.5;exitY=1;exitDx=0;exitDy=0;exitPerimeter=0;entryX=0.5;entryY=0;entryDx=0;entryDy=0;entryPerimeter=0;" parent="2" edge="1"><mxGeometry relative="1" as="geometry"><mxPoint x="10" as="offset"/><Array as="points"/><mxPoint x="534" y="1478" as="targetPoint"/></mxGeometry></mxCell><mxCell id="423" style="vsdxID=820;edgeStyle=none;startArrow=none;endArrow=block;startSize=9;endSize=9;spacingTop=0;spacingBottom=0;spacingLeft=0;spacingRight=0;verticalAlign=middle;html=1;labelBackgroundColor=#FFFFFF;rounded=0;exitX=0.5;exitY=1;exitDx=0;exitDy=0;exitPerimeter=0;entryX=0.5;entryY=0;entryDx=0;entryDy=0;entryPerimeter=0;" parent="2" edge="1"><mxGeometry relative="1" as="geometry"><mxPoint x="10" as="offset"/><Array as="points"/><mxPoint x="270" y="488" as="sourcePoint"/></mxGeometry></mxCell><mxCell id="424" style="vsdxID=819;edgeStyle=none;startArrow=none;endArrow=none;startSize=9;endSize=9;spacingTop=0;spacingBottom=0;spacingLeft=0;spacingRight=0;verticalAlign=middle;html=1;labelBackgroundColor=#ffffff;rounded=0;exitX=1;exitY=0.5;exitDx=0;exitDy=0;exitPerimeter=0;entryX=0;entryY=0.5;entryDx=0;entryDy=0;entryPerimeter=0;" parent="2" edge="1"><mxGeometry relative="1" as="geometry"><mxPoint y="-1" as="offset"/><Array as="points"><mxPoint x="496" y="555"/><mxPoint x="496" y="658.3"/><mxPoint x="661.6700000000001" y="658.3"/></Array><mxPoint x="680" y="658" as="targetPoint"/></mxGeometry></mxCell><mxCell id="425" value="&lt;font style=&quot;font-size:11px;font-family:SimSun;color:#000000;direction:ltr;letter-spacing:0px;line-height:120%;opacity:1&quot;&gt;出票&lt;br/&gt;&lt;/font&gt;" style="vsdxID=817;edgeStyle=none;startArrow=none;endArrow=block;startSize=9;endSize=9;spacingTop=0;spacingBottom=0;spacingLeft=0;spacingRight=0;verticalAlign=middle;html=1;labelBackgroundColor=#ffffff;rounded=0;align=center;exitX=0.5;exitY=1;exitDx=0;exitDy=0;exitPerimeter=0;entryX=0.5;entryY=0;entryDx=0;entryDy=0;entryPerimeter=0;" parent="2" edge="1"><mxGeometry relative="1" as="geometry"><mxPoint x="10" as="offset"/><Array as="points"/><mxPoint x="730" y="1036" as="targetPoint"/></mxGeometry></mxCell><mxCell id="426" style="vsdxID=815;edgeStyle=none;startArrow=none;endArrow=none;startSize=9;endSize=9;spacingTop=0;spacingBottom=0;spacingLeft=0;spacingRight=0;verticalAlign=middle;html=1;labelBackgroundColor=#ffffff;rounded=0;exitX=0.5;exitY=1;exitDx=0;exitDy=0;exitPerimeter=0;entryX=0.5;entryY=0;entryDx=0;entryDy=0;entryPerimeter=0;" parent="2" edge="1"><mxGeometry relative="1" as="geometry"><mxPoint x="10" as="offset"/><Array as="points"/><mxPoint x="922" y="855" as="sourcePoint"/></mxGeometry></mxCell><mxCell id="427" value="&lt;font style=&quot;font-size:11px;font-family:SimSun;color:#000000;direction:ltr;letter-spacing:0px;line-height:120%;opacity:1&quot;&gt;否&lt;br/&gt;&lt;/font&gt;" style="vsdxID=801;edgeStyle=none;startArrow=none;endArrow=block;startSize=9;endSize=9;spacingTop=0;spacingBottom=0;spacingLeft=0;spacingRight=0;verticalAlign=middle;html=1;labelBackgroundColor=#FFFFFF;rounded=0;align=center;exitX=1;exitY=0.5;exitDx=0;exitDy=0;exitPerimeter=0;entryX=1;entryY=0.5;entryDx=0;entryDy=0;entryPerimeter=0;" parent="2" edge="1"><mxGeometry relative="1" as="geometry"><mxPoint as="offset"/><Array as="points"><mxPoint x="1515" y="767"/><mxPoint x="1515" y="827"/></Array><mxPoint x="1500" y="767" as="sourcePoint"/></mxGeometry></mxCell><mxCell id="428" style="vsdxID=798;edgeStyle=none;startArrow=none;endArrow=none;startSize=9;endSize=9;spacingTop=0;spacingBottom=0;spacingLeft=0;spacingRight=0;verticalAlign=middle;html=1;labelBackgroundColor=#ffffff;rounded=0;exitX=0;exitY=0.5;exitDx=0;exitDy=0;exitPerimeter=0;entryX=0.5;entryY=0;entryDx=0;entryDy=0;entryPerimeter=0;" parent="2" edge="1"><mxGeometry relative="1" as="geometry"><mxPoint x="-1" as="offset"/><Array as="points"><mxPoint x="1120" y="767"/><mxPoint x="1120" y="712"/><mxPoint x="730" y="712"/></Array><mxPoint x="730" y="741" as="targetPoint"/></mxGeometry></mxCell><mxCell id="429" style="vsdxID=797;edgeStyle=none;startArrow=none;endArrow=block;startSize=9;endSize=9;spacingTop=0;spacingBottom=0;spacingLeft=0;spacingRight=0;verticalAlign=middle;html=1;labelBackgroundColor=#FFFFFF;rounded=0;exitX=0.5;exitY=1;exitDx=0;exitDy=0;exitPerimeter=0;entryX=0.5;entryY=0;entryDx=0;entryDy=0;entryPerimeter=0;" parent="2" edge="1"><mxGeometry relative="1" as="geometry"><mxPoint x="10" as="offset"/><Array as="points"/><mxPoint x="1450" y="687" as="sourcePoint"/></mxGeometry></mxCell><mxCell id="430" value="&lt;font style=&quot;font-size:11px;font-family:SimSun;color:#000000;direction:ltr;letter-spacing:0px;line-height:120%;opacity:1&quot;&gt;否&lt;br/&gt;&lt;/font&gt;" style="vsdxID=795;edgeStyle=none;startArrow=none;endArrow=block;startSize=9;endSize=9;spacingTop=0;spacingBottom=0;spacingLeft=0;spacingRight=0;verticalAlign=middle;html=1;labelBackgroundColor=#FFFFFF;rounded=0;align=center;exitX=0;exitY=0.5;exitDx=0;exitDy=0;exitPerimeter=0;entryX=0.5;entryY=0;entryDx=0;entryDy=0;entryPerimeter=0;" parent="2" edge="1"><mxGeometry relative="1" as="geometry"><mxPoint as="offset"/><Array as="points"><mxPoint x="1167.43" y="267"/><mxPoint x="1167.43" y="712"/><mxPoint x="730" y="712"/></Array><mxPoint x="1210" y="267" as="sourcePoint"/></mxGeometry></mxCell><mxCell id="431" value="&lt;font style=&quot;font-size:11px;font-family:SimSun;color:#000000;direction:ltr;letter-spacing:0px;line-height:120%;opacity:1&quot;&gt;是&lt;br/&gt;&lt;/font&gt;" style="vsdxID=794;edgeStyle=none;startArrow=none;endArrow=none;startSize=9;endSize=9;spacingTop=0;spacingBottom=0;spacingLeft=0;spacingRight=0;verticalAlign=middle;html=1;labelBackgroundColor=#ffffff;rounded=0;align=center;exitX=0;exitY=0.5;exitDx=0;exitDy=0;exitPerimeter=0;entryX=0.5;entryY=0;entryDx=0;entryDy=0;entryPerimeter=0;" parent="2" edge="1"><mxGeometry relative="1" as="geometry"><mxPoint as="offset"/><Array as="points"><mxPoint x="730" y="712"/></Array><mxPoint x="1210" y="712" as="sourcePoint"/></mxGeometry></mxCell><mxCell id="432" value="&lt;font style=&quot;font-size:11px;font-family:SimSun;color:#000000;direction:ltr;letter-spacing:0px;line-height:120%;opacity:1&quot;&gt;否&lt;br/&gt;&lt;/font&gt;" style="vsdxID=778;edgeStyle=none;startArrow=none;endArrow=block;startSize=9;endSize=9;spacingTop=0;spacingBottom=0;spacingLeft=0;spacingRight=0;verticalAlign=middle;html=1;labelBackgroundColor=#FFFFFF;rounded=0;align=center;exitX=1;exitY=0.5;exitDx=0;exitDy=0;exitPerimeter=0;entryX=0;entryY=0.5;entryDx=0;entryDy=0;entryPerimeter=0;" parent="2" edge="1"><mxGeometry relative="1" as="geometry"><mxPoint as="offset"/><Array as="points"><mxPoint x="1352.4299999999998" y="712"/><mxPoint x="1352.4299999999998" y="533"/></Array><mxPoint x="1310" y="712" as="sourcePoint"/></mxGeometry></mxCell><mxCell id="433" style="vsdxID=777;edgeStyle=none;startArrow=none;endArrow=block;startSize=9;endSize=9;spacingTop=0;spacingBottom=0;spacingLeft=0;spacingRight=0;verticalAlign=middle;html=1;labelBackgroundColor=#FFFFFF;rounded=0;exitX=0.5;exitY=1;exitDx=0;exitDy=0;exitPerimeter=0;entryX=0.5;entryY=0;entryDx=0;entryDy=0;entryPerimeter=0;" parent="2" edge="1"><mxGeometry relative="1" as="geometry"><mxPoint x="10" y="-1" as="offset"/><Array as="points"/><mxPoint x="1260" y="647" as="sourcePoint"/></mxGeometry></mxCell><mxCell id="434" value="&lt;font style=&quot;font-size:11px;font-family:SimSun;color:#000000;direction:ltr;letter-spacing:0px;line-height:120%;opacity:1&quot;&gt;否&lt;br/&gt;&lt;/font&gt;" style="vsdxID=774;edgeStyle=none;startArrow=none;endArrow=block;startSize=9;endSize=9;spacingTop=0;spacingBottom=0;spacingLeft=0;spacingRight=0;verticalAlign=middle;html=1;labelBackgroundColor=#FFFFFF;rounded=0;align=center;exitX=1;exitY=0.5;exitDx=0;exitDy=0;exitPerimeter=0;entryX=0;entryY=0.5;entryDx=0;entryDy=0;entryPerimeter=0;" parent="2" edge="1"><mxGeometry relative="1" as="geometry"><mxPoint as="offset"/><Array as="points"/><mxPoint x="1310" y="533" as="sourcePoint"/></mxGeometry></mxCell><mxCell id="435" style="vsdxID=772;edgeStyle=none;startArrow=none;endArrow=block;startSize=9;endSize=9;spacingTop=0;spacingBottom=0;spacingLeft=0;spacingRight=0;verticalAlign=middle;html=1;labelBackgroundColor=#FFFFFF;rounded=0;exitX=0.5;exitY=1;exitDx=0;exitDy=0;exitPerimeter=0;entryX=0.5;entryY=0;entryDx=0;entryDy=0;entryPerimeter=0;" parent="2" edge="1"><mxGeometry relative="1" as="geometry"><mxPoint x="10" as="offset"/><Array as="points"/><mxPoint x="1260" y="563" as="sourcePoint"/></mxGeometry></mxCell><mxCell id="436" style="vsdxID=766;edgeStyle=none;startArrow=none;endArrow=block;startSize=9;endSize=9;spacingTop=0;spacingBottom=0;spacingLeft=0;spacingRight=0;verticalAlign=middle;html=1;labelBackgroundColor=#FFFFFF;rounded=0;exitX=0;exitY=0.5;exitDx=0;exitDy=0;exitPerimeter=0;entryX=1;entryY=0.5;entryDx=0;entryDy=0;entryPerimeter=0;" parent="2" edge="1"><mxGeometry relative="1" as="geometry"><mxPoint y="-1" as="offset"/><Array as="points"><mxPoint x="484.6700000000001" y="4200"/><mxPoint x="484.6700000000001" y="4100.08"/></Array><mxPoint x="300" y="4100" as="targetPoint"/></mxGeometry></mxCell><mxCell id="437" style="vsdxID=765;edgeStyle=none;startArrow=none;endArrow=block;startSize=9;endSize=9;spacingTop=0;spacingBottom=0;spacingLeft=0;spacingRight=0;verticalAlign=middle;html=1;labelBackgroundColor=#FFFFFF;rounded=0;exitX=0.5;exitY=1;exitDx=0;exitDy=0;exitPerimeter=0;entryX=0.5;entryY=0;entryDx=0;entryDy=0;entryPerimeter=0;" parent="2" edge="1"><mxGeometry relative="1" as="geometry"><mxPoint x="10" as="offset"/><Array as="points"/><mxPoint x="713" y="4130" as="sourcePoint"/></mxGeometry></mxCell><mxCell id="438" style="vsdxID=762;edgeStyle=none;startArrow=none;endArrow=block;startSize=9;endSize=9;spacingTop=0;spacingBottom=0;spacingLeft=0;spacingRight=0;verticalAlign=middle;html=1;labelBackgroundColor=#FFFFFF;rounded=0;exitX=0.5;exitY=1;exitDx=0;exitDy=0;exitPerimeter=0;entryX=0.5;entryY=0;entryDx=0;entryDy=0;entryPerimeter=0;" parent="2" edge="1"><mxGeometry relative="1" as="geometry"><mxPoint x="10" as="offset"/><Array as="points"/><mxPoint x="1394" y="4010" as="sourcePoint"/></mxGeometry></mxCell><mxCell id="439" style="vsdxID=761;edgeStyle=none;startArrow=none;endArrow=none;startSize=9;endSize=9;spacingTop=0;spacingBottom=0;spacingLeft=0;spacingRight=0;verticalAlign=middle;html=1;labelBackgroundColor=#ffffff;rounded=0;exitX=0;exitY=0.5;exitDx=0;exitDy=0;exitPerimeter=0;entryX=1;entryY=0.5;entryDx=0;entryDy=0;entryPerimeter=0;" parent="2" edge="1"><mxGeometry relative="1" as="geometry"><mxPoint as="offset"/><Array as="points"><mxPoint x="1329" y="3760"/><mxPoint x="1329" y="3734.6099999999997"/></Array><mxPoint x="1344" y="3760" as="sourcePoint"/></mxGeometry></mxCell><mxCell id="440" value="&lt;font style=&quot;font-size:11px;font-family:SimSun;color:#000000;direction:ltr;letter-spacing:0px;line-height:120%;opacity:1&quot;&gt;否&lt;br/&gt;&lt;/font&gt;" style="vsdxID=749;edgeStyle=none;startArrow=none;endArrow=block;startSize=9;endSize=9;spacingTop=0;spacingBottom=0;spacingLeft=0;spacingRight=0;verticalAlign=middle;html=1;labelBackgroundColor=#FFFFFF;rounded=0;align=center;exitX=0.5;exitY=0;exitDx=0;exitDy=0;exitPerimeter=0;entryX=0;entryY=0.5;entryDx=0;entryDy=0;entryPerimeter=0;" parent="2" edge="1"><mxGeometry relative="1" as="geometry"><mxPoint as="offset"/><Array as="points"><mxPoint x="702" y="3042"/><mxPoint x="762" y="3042"/><mxPoint x="762" y="3058.57"/><mxPoint x="850.6700000000001" y="3058.57"/><mxPoint x="948.3900000000001" y="3058.57"/></Array><mxPoint x="1491" y="3058" as="targetPoint"/></mxGeometry></mxCell><mxCell id="441" style="vsdxID=733;edgeStyle=none;startArrow=none;endArrow=block;startSize=9;endSize=9;spacingTop=0;spacingBottom=0;spacingLeft=0;spacingRight=0;verticalAlign=middle;html=1;labelBackgroundColor=#FFFFFF;rounded=0;exitX=1;exitY=0.5;exitDx=0;exitDy=0;exitPerimeter=0;entryX=0.5;entryY=0;entryDx=0;entryDy=0;entryPerimeter=0;" parent="2" edge="1"><mxGeometry relative="1" as="geometry"><mxPoint as="offset"/><Array as="points"><mxPoint x="1140" y="658"/><mxPoint x="1140" y="178.70000000000005"/><mxPoint x="1260" y="178.70000000000005"/></Array><mxPoint x="780" y="658" as="sourcePoint"/></mxGeometry></mxCell><mxCell id="442" value="&lt;font style=&quot;font-size:11px;font-family:SimSun;color:#000000;direction:ltr;letter-spacing:0px;line-height:120%;opacity:1&quot;&gt;是&lt;br/&gt;&lt;/font&gt;" style="vsdxID=729;edgeStyle=none;startArrow=none;endArrow=block;startSize=9;endSize=9;spacingTop=0;spacingBottom=0;spacingLeft=0;spacingRight=0;verticalAlign=middle;html=1;labelBackgroundColor=#FFFFFF;rounded=0;align=center;exitX=1;exitY=0.5;exitDx=0;exitDy=0;exitPerimeter=0;entryX=0.5;entryY=0;entryDx=0;entryDy=0;entryPerimeter=0;" parent="2" edge="1"><mxGeometry relative="1" as="geometry"><mxPoint as="offset"/><Array as="points"><mxPoint x="1534" y="1467"/></Array><mxPoint x="1500" y="1467" as="sourcePoint"/></mxGeometry></mxCell><mxCell id="443" value="&lt;font style=&quot;font-size:11px;font-family:SimSun;color:#000000;direction:ltr;letter-spacing:0px;line-height:120%;opacity:1&quot;&gt;否&lt;br/&gt;&lt;/font&gt;" style="vsdxID=727;edgeStyle=none;startArrow=none;endArrow=none;startSize=9;endSize=9;spacingTop=0;spacingBottom=0;spacingLeft=0;spacingRight=0;verticalAlign=middle;html=1;labelBackgroundColor=#ffffff;rounded=0;align=center;exitX=0;exitY=0.5;exitDx=0;exitDy=0;exitPerimeter=0;entryX=1;entryY=0.5;entryDx=0;entryDy=0;entryPerimeter=0;" parent="2" edge="1"><mxGeometry relative="1" as="geometry"><mxPoint as="offset"/><Array as="points"/><mxPoint x="1340" y="1467" as="targetPoint"/></mxGeometry></mxCell><mxCell id="444" style="vsdxID=726;edgeStyle=none;startArrow=none;endArrow=block;startSize=9;endSize=9;spacingTop=0;spacingBottom=0;spacingLeft=0;spacingRight=0;verticalAlign=middle;html=1;labelBackgroundColor=#FFFFFF;rounded=0;exitX=0.5;exitY=1;exitDx=0;exitDy=0;exitPerimeter=0;entryX=0.5;entryY=0;entryDx=0;entryDy=0;entryPerimeter=0;" parent="2" edge="1"><mxGeometry relative="1" as="geometry"><mxPoint x="10" as="offset"/><Array as="points"/><mxPoint x="1450" y="1407" as="sourcePoint"/></mxGeometry></mxCell><mxCell id="445" style="vsdxID=721;edgeStyle=none;startArrow=none;endArrow=block;startSize=9;endSize=9;strokeColor=#000000;spacingTop=0;spacingBottom=0;spacingLeft=0;spacingRight=0;verticalAlign=middle;html=1;labelBackgroundColor=#FFFFFF;rounded=0;exitX=0.5;exitY=1;exitDx=0;exitDy=0;exitPerimeter=0;entryX=0.5;entryY=0;entryDx=0;entryDy=0;entryPerimeter=0;" parent="2" edge="1"><mxGeometry relative="1" as="geometry"><mxPoint x="10" as="offset"/><Array as="points"/><mxPoint x="700" y="1947" as="sourcePoint"/></mxGeometry></mxCell><mxCell id="446" style="vsdxID=713;edgeStyle=none;startArrow=none;endArrow=block;startSize=9;endSize=9;spacingTop=0;spacingBottom=0;spacingLeft=0;spacingRight=0;verticalAlign=middle;html=1;labelBackgroundColor=#ffffff;rounded=0;exitX=0;exitY=0.5;exitDx=0;exitDy=0;exitPerimeter=0;entryX=1;entryY=0.5;entryDx=0;entryDy=0;entryPerimeter=0;" parent="2" edge="1"><mxGeometry relative="1" as="geometry"><mxPoint as="offset"/><Array as="points"/><mxPoint x="722.5" y="6031" as="sourcePoint"/></mxGeometry></mxCell><mxCell id="447" style="vsdxID=699;edgeStyle=none;startArrow=none;endArrow=block;startSize=9;endSize=9;spacingTop=0;spacingBottom=0;spacingLeft=0;spacingRight=0;verticalAlign=middle;html=1;labelBackgroundColor=#ffffff;rounded=0;exitX=0;exitY=0.5;exitDx=0;exitDy=0;exitPerimeter=0;entryX=1;entryY=0.5;entryDx=0;entryDy=0;entryPerimeter=0;" parent="2" edge="1"><mxGeometry relative="1" as="geometry"><mxPoint as="offset"/><Array as="points"/><mxPoint x="572.5" y="5674" as="sourcePoint"/></mxGeometry></mxCell><mxCell id="448" style="vsdxID=685;edgeStyle=none;startArrow=none;endArrow=block;startSize=9;endSize=9;spacingTop=0;spacingBottom=0;spacingLeft=0;spacingRight=0;verticalAlign=middle;html=1;labelBackgroundColor=#ffffff;rounded=0;exitX=0.5;exitY=1;exitDx=0;exitDy=0;exitPerimeter=0;entryX=0.5;entryY=0;entryDx=0;entryDy=0;entryPerimeter=0;" parent="2" edge="1"><mxGeometry relative="1" as="geometry"><mxPoint x="10" as="offset"/><Array as="points"/><mxPoint x="268.5" y="6064" as="sourcePoint"/></mxGeometry></mxCell><mxCell id="449" style="vsdxID=671;edgeStyle=none;startArrow=none;endArrow=block;startSize=9;endSize=9;spacingTop=0;spacingBottom=0;spacingLeft=0;spacingRight=0;verticalAlign=middle;html=1;labelBackgroundColor=#ffffff;rounded=0;exitX=0.5;exitY=1;exitDx=0;exitDy=0;exitPerimeter=0;entryX=0.5;entryY=0;entryDx=0;entryDy=0;entryPerimeter=0;" parent="2" edge="1"><mxGeometry relative="1" as="geometry"><mxPoint x="10" as="offset"/><Array as="points"/><mxPoint x="275.5" y="5856" as="sourcePoint"/></mxGeometry></mxCell><mxCell id="450" style="vsdxID=657;edgeStyle=none;startArrow=none;endArrow=block;startSize=9;endSize=9;spacingTop=0;spacingBottom=0;spacingLeft=0;spacingRight=0;verticalAlign=middle;html=1;labelBackgroundColor=#ffffff;rounded=0;exitX=0;exitY=0.5;exitDx=0;exitDy=0;exitPerimeter=0;entryX=1;entryY=0.5;entryDx=0;entryDy=0;entryPerimeter=0;" parent="2" edge="1"><mxGeometry relative="1" as="geometry"><mxPoint x="-1" as="offset"/><Array as="points"/><mxPoint x="212.5" y="5121" as="sourcePoint"/></mxGeometry></mxCell><mxCell id="451" style="vsdxID=629;edgeStyle=none;startArrow=none;endArrow=block;startSize=9;endSize=9;spacingTop=0;spacingBottom=0;spacingLeft=0;spacingRight=0;verticalAlign=middle;html=1;labelBackgroundColor=#FFFFFF;rounded=0;exitX=0;exitY=0.5;exitDx=0;exitDy=0;exitPerimeter=0;entryX=1;entryY=0.5;entryDx=0;entryDy=0;entryPerimeter=0;" parent="2" edge="1"><mxGeometry relative="1" as="geometry"><mxPoint as="offset"/><Array as="points"><mxPoint x="626" y="3990"/><mxPoint x="626" y="4045"/></Array><mxPoint x="641" y="3990" as="sourcePoint"/></mxGeometry></mxCell><mxCell id="452" style="vsdxID=615;edgeStyle=none;startArrow=none;endArrow=block;startSize=9;endSize=9;spacingTop=0;spacingBottom=0;spacingLeft=0;spacingRight=0;verticalAlign=middle;html=1;labelBackgroundColor=#FFFFFF;rounded=0;exitX=0.5;exitY=1;exitDx=0;exitDy=0;exitPerimeter=0;entryX=0.5;entryY=0;entryDx=0;entryDy=0;entryPerimeter=0;" parent="2" edge="1"><mxGeometry relative="1" as="geometry"><mxPoint x="10" y="-1" as="offset"/><Array as="points"/><mxPoint x="250" y="4130" as="sourcePoint"/></mxGeometry></mxCell><mxCell id="453" style="vsdxID=601;edgeStyle=none;startArrow=none;endArrow=block;startSize=9;endSize=9;spacingTop=0;spacingBottom=0;spacingLeft=0;spacingRight=0;verticalAlign=middle;html=1;labelBackgroundColor=#FFFFFF;rounded=0;exitX=0.5;exitY=1;exitDx=0;exitDy=0;exitPerimeter=0;entryX=0.5;entryY=0;entryDx=0;entryDy=0;entryPerimeter=0;" parent="2" edge="1"><mxGeometry relative="1" as="geometry"><mxPoint x="10" as="offset"/><Array as="points"/><mxPoint x="250" y="3980" as="sourcePoint"/></mxGeometry></mxCell><mxCell id="454" style="vsdxID=587;edgeStyle=none;startArrow=none;endArrow=block;startSize=9;endSize=9;spacingTop=0;spacingBottom=0;spacingLeft=0;spacingRight=0;verticalAlign=middle;html=1;labelBackgroundColor=#FFFFFF;rounded=0;exitX=0.5;exitY=1;exitDx=0;exitDy=0;exitPerimeter=0;entryX=0.5;entryY=0;entryDx=0;entryDy=0;entryPerimeter=0;" parent="2" edge="1"><mxGeometry relative="1" as="geometry"><mxPoint x="10" as="offset"/><Array as="points"/><mxPoint x="255" y="3256" as="sourcePoint"/></mxGeometry></mxCell><mxCell id="455" style="vsdxID=573;edgeStyle=none;startArrow=none;endArrow=block;startSize=9;endSize=9;strokeColor=#000000;spacingTop=0;spacingBottom=0;spacingLeft=0;spacingRight=0;verticalAlign=middle;html=1;labelBackgroundColor=#FFFFFF;rounded=0;exitX=0.5;exitY=1;exitDx=0;exitDy=0;exitPerimeter=0;entryX=0.5;entryY=0;entryDx=0;entryDy=0;entryPerimeter=0;" parent="2" edge="1"><mxGeometry relative="1" as="geometry"><mxPoint x="-10" as="offset"/><Array as="points"/><mxPoint x="234" y="1727" as="sourcePoint"/></mxGeometry></mxCell><mxCell id="456" style="vsdxID=572;edgeStyle=none;startArrow=none;endArrow=block;startSize=9;endSize=9;strokeColor=#000000;spacingTop=0;spacingBottom=0;spacingLeft=0;spacingRight=0;verticalAlign=middle;html=1;labelBackgroundColor=#FFFFFF;rounded=0;exitX=0.5;exitY=1;exitDx=0;exitDy=0;exitPerimeter=0;entryX=0.5;entryY=0;entryDx=0;entryDy=0;entryPerimeter=0;" parent="2" edge="1"><mxGeometry relative="1" as="geometry"><mxPoint x="10" as="offset"/><Array as="points"/><mxPoint x="510" y="1947" as="sourcePoint"/></mxGeometry></mxCell><mxCell id="457" style="vsdxID=545;edgeStyle=none;startArrow=none;endArrow=block;startSize=9;endSize=9;spacingTop=0;spacingBottom=0;spacingLeft=0;spacingRight=0;verticalAlign=middle;html=1;labelBackgroundColor=#FFFFFF;rounded=0;exitX=0.5;exitY=1;exitDx=0;exitDy=0;exitPerimeter=0;entryX=0.5;entryY=0;entryDx=0;entryDy=0;entryPerimeter=0;" parent="2" edge="1"><mxGeometry relative="1" as="geometry"><mxPoint x="10" y="-1" as="offset"/><Array as="points"/><mxPoint x="730" y="315" as="targetPoint"/></mxGeometry></mxCell><mxCell id="458" style="vsdxID=544;edgeStyle=none;startArrow=none;endArrow=block;startSize=9;endSize=9;spacingTop=0;spacingBottom=0;spacingLeft=0;spacingRight=0;verticalAlign=middle;html=1;labelBackgroundColor=#FFFFFF;rounded=0;exitX=0.5;exitY=1;exitDx=0;exitDy=0;exitPerimeter=0;entryX=0.5;entryY=0;entryDx=0;entryDy=0;entryPerimeter=0;" parent="2" edge="1"><mxGeometry relative="1" as="geometry"><mxPoint x="10" y="-1" as="offset"/><Array as="points"/><mxPoint x="270" y="315" as="targetPoint"/></mxGeometry></mxCell><mxCell id="459" style="vsdxID=462;edgeStyle=none;startArrow=none;endArrow=block;startSize=9;endSize=9;spacingTop=0;spacingBottom=0;spacingLeft=0;spacingRight=0;verticalAlign=middle;html=1;labelBackgroundColor=#ffffff;rounded=0;exitX=0;exitY=0.5;exitDx=0;exitDy=0;exitPerimeter=0;entryX=1;entryY=0.5;entryDx=0;entryDy=0;entryPerimeter=0;" parent="2" edge="1"><mxGeometry relative="1" as="geometry"><mxPoint as="offset"/><Array as="points"><mxPoint x="1137.18" y="5891"/><mxPoint x="1137.18" y="5674.6"/></Array><mxPoint x="823.5" y="5674" as="targetPoint"/></mxGeometry></mxCell><mxCell id="460" value="&lt;font style=&quot;font-size:11px;font-family:SimSun;color:#000000;direction:ltr;letter-spacing:0px;line-height:120%;opacity:1&quot;&gt;是&lt;br/&gt;&lt;/font&gt;" style="vsdxID=457;edgeStyle=none;startArrow=none;endArrow=block;startSize=9;endSize=9;spacingTop=0;spacingBottom=0;spacingLeft=0;spacingRight=0;verticalAlign=middle;html=1;labelBackgroundColor=#ffffff;rounded=0;align=center;exitX=0.5;exitY=1;exitDx=0;exitDy=0;exitPerimeter=0;entryX=0.5;entryY=0;entryDx=0;entryDy=0;entryPerimeter=0;" parent="2" edge="1"><mxGeometry relative="1" as="geometry"><mxPoint x="10" as="offset"/><Array as="points"/><mxPoint x="1410.5" y="5921" as="sourcePoint"/></mxGeometry></mxCell><mxCell id="461" style="vsdxID=455;edgeStyle=none;startArrow=none;endArrow=block;startSize=9;endSize=9;spacingTop=0;spacingBottom=0;spacingLeft=0;spacingRight=0;verticalAlign=middle;html=1;labelBackgroundColor=#ffffff;rounded=0;exitX=0.5;exitY=1;exitDx=0;exitDy=0;exitPerimeter=0;entryX=0.5;entryY=0;entryDx=0;entryDy=0;entryPerimeter=0;" parent="2" edge="1"><mxGeometry relative="1" as="geometry"><mxPoint x="10" as="offset"/><Array as="points"/><mxPoint x="1410.5" y="5831" as="sourcePoint"/></mxGeometry></mxCell><mxCell id="462" value="&lt;font style=&quot;font-size:11px;font-family:SimSun;color:#000000;direction:ltr;letter-spacing:0px;line-height:120%;opacity:1&quot;&gt;否&lt;br/&gt;&lt;/font&gt;" style="vsdxID=453;edgeStyle=none;startArrow=none;endArrow=block;startSize=9;endSize=9;spacingTop=0;spacingBottom=0;spacingLeft=0;spacingRight=0;verticalAlign=middle;html=1;labelBackgroundColor=#ffffff;rounded=0;align=center;exitX=0.5;exitY=1;exitDx=0;exitDy=0;exitPerimeter=0;entryX=0.5;entryY=0;entryDx=0;entryDy=0;entryPerimeter=0;" parent="2" edge="1"><mxGeometry relative="1" as="geometry"><mxPoint x="-10" as="offset"/><Array as="points"><mxPoint x="1411.5" y="5036"/><mxPoint x="1410.65" y="5036"/></Array><mxPoint x="1410.5" y="5771" as="targetPoint"/></mxGeometry></mxCell><mxCell id="463" style="vsdxID=435;edgeStyle=none;startArrow=none;endArrow=block;startSize=9;endSize=9;spacingTop=0;spacingBottom=0;spacingLeft=0;spacingRight=0;verticalAlign=middle;html=1;labelBackgroundColor=#ffffff;rounded=0;exitX=0.5;exitY=0.5;exitDx=0;exitDy=0;exitPerimeter=0;entryX=0.5;entryY=0;entryDx=0;entryDy=0;entryPerimeter=0;" parent="2" edge="1"><mxGeometry relative="1" as="geometry"><mxPoint x="10" as="offset"/><Array as="points"/><mxPoint x="1411.5" y="4861" as="sourcePoint"/></mxGeometry></mxCell><mxCell id="464" style="vsdxID=429;edgeStyle=none;startArrow=none;endArrow=block;startSize=9;endSize=9;spacingTop=0;spacingBottom=0;spacingLeft=0;spacingRight=0;verticalAlign=middle;html=1;labelBackgroundColor=#FFFFFF;rounded=0;exitX=0.5;exitY=1;exitDx=0;exitDy=0;exitPerimeter=0;entryX=0.5;entryY=0;entryDx=0;entryDy=0;entryPerimeter=0;" parent="2" edge="1"><mxGeometry relative="1" as="geometry"><mxPoint x="10" as="offset"/><Array as="points"/><mxPoint x="854" y="3196" as="targetPoint"/></mxGeometry></mxCell><mxCell id="465" style="vsdxID=413;edgeStyle=none;startArrow=none;endArrow=block;startSize=9;endSize=9;spacingTop=0;spacingBottom=0;spacingLeft=0;spacingRight=0;verticalAlign=middle;html=1;labelBackgroundColor=#ffffff;rounded=0;exitX=0;exitY=0.5;exitDx=0;exitDy=0;exitPerimeter=0;entryX=1;entryY=0.5;entryDx=0;entryDy=0;entryPerimeter=0;" parent="2" edge="1"><mxGeometry relative="1" as="geometry"><mxPoint x="-1" as="offset"/><Array as="points"/><mxPoint x="312.5" y="5121" as="targetPoint"/></mxGeometry></mxCell><mxCell id="466" style="vsdxID=412;edgeStyle=none;startArrow=none;endArrow=block;startSize=9;endSize=9;spacingTop=0;spacingBottom=0;spacingLeft=0;spacingRight=0;verticalAlign=middle;html=1;labelBackgroundColor=#ffffff;rounded=0;exitX=0.5;exitY=1;exitDx=0;exitDy=0;exitPerimeter=0;entryX=0.5;entryY=0;entryDx=0;entryDy=0;entryPerimeter=0;" parent="2" edge="1"><mxGeometry relative="1" as="geometry"><mxPoint x="10" as="offset"/><Array as="points"/><mxPoint x="753.5" y="5051" as="sourcePoint"/></mxGeometry></mxCell><mxCell id="467" style="vsdxID=400;edgeStyle=none;startArrow=none;endArrow=block;startSize=9;endSize=9;spacingTop=0;spacingBottom=0;spacingLeft=0;spacingRight=0;verticalAlign=middle;html=1;labelBackgroundColor=#FFFFFF;rounded=0;exitX=0;exitY=0.5;exitDx=0;exitDy=0;exitPerimeter=0;entryX=1;entryY=0.5;entryDx=0;entryDy=0;entryPerimeter=0;" parent="2" edge="1"><mxGeometry relative="1" as="geometry"><mxPoint x="-1" as="offset"/><Array as="points"/><mxPoint x="804" y="3226" as="sourcePoint"/></mxGeometry></mxCell><mxCell id="468" style="vsdxID=393;edgeStyle=none;startArrow=none;endArrow=block;startSize=9;endSize=9;spacingTop=0;spacingBottom=0;spacingLeft=0;spacingRight=0;verticalAlign=middle;html=1;labelBackgroundColor=#FFFFFF;rounded=0;exitX=0.5;exitY=1;exitDx=0;exitDy=0;exitPerimeter=0;entryX=0.5;entryY=0;entryDx=0;entryDy=0;entryPerimeter=0;" parent="2" edge="1"><mxGeometry relative="1" as="geometry"><mxPoint x="10" y="-1" as="offset"/><Array as="points"/><mxPoint x="255.5" y="4717" as="sourcePoint"/></mxGeometry></mxCell><mxCell id="469" style="vsdxID=390;edgeStyle=none;startArrow=none;endArrow=block;startSize=9;endSize=9;spacingTop=0;spacingBottom=0;spacingLeft=0;spacingRight=0;verticalAlign=middle;html=1;labelBackgroundColor=#FFFFFF;rounded=0;exitX=1;exitY=0.5;exitDx=0;exitDy=0;exitPerimeter=0;entryX=0;entryY=0.5;entryDx=0;entryDy=0;entryPerimeter=0;" parent="2" edge="1"><mxGeometry relative="1" as="geometry"><mxPoint as="offset"/><Array as="points"/><mxPoint x="305.5" y="4831" as="sourcePoint"/></mxGeometry></mxCell><mxCell id="470" style="vsdxID=389;edgeStyle=none;startArrow=none;endArrow=block;startSize=9;endSize=9;spacingTop=0;spacingBottom=0;spacingLeft=0;spacingRight=0;verticalAlign=middle;html=1;labelBackgroundColor=#ffffff;rounded=0;exitX=0.5;exitY=1;exitDx=0;exitDy=0;exitPerimeter=0;entryX=0.5;entryY=0;entryDx=0;entryDy=0;entryPerimeter=0;" parent="2" edge="1"><mxGeometry relative="1" as="geometry"><mxPoint x="10" as="offset"/><Array as="points"/><mxPoint x="879.5" y="4831" as="targetPoint"/></mxGeometry></mxCell><mxCell id="471" style="vsdxID=388;edgeStyle=none;startArrow=none;endArrow=block;startSize=9;endSize=9;spacingTop=0;spacingBottom=0;spacingLeft=0;spacingRight=0;verticalAlign=middle;html=1;labelBackgroundColor=#ffffff;rounded=0;exitX=0.5;exitY=1;exitDx=0;exitDy=0;exitPerimeter=0;entryX=0.5;entryY=0;entryDx=0;entryDy=0;entryPerimeter=0;" parent="2" edge="1"><mxGeometry relative="1" as="geometry"><mxPoint x="10" as="offset"/><Array as="points"/><mxPoint x="879.5" y="4621" as="sourcePoint"/></mxGeometry></mxCell><mxCell id="472" style="vsdxID=384;edgeStyle=none;startArrow=none;endArrow=block;startSize=9;endSize=9;spacingTop=0;spacingBottom=0;spacingLeft=0;spacingRight=0;verticalAlign=middle;html=1;labelBackgroundColor=#FFFFFF;rounded=0;exitX=0.5;exitY=1;exitDx=0;exitDy=0;exitPerimeter=0;entryX=0.5;entryY=0;entryDx=0;entryDy=0;entryPerimeter=0;" parent="2" edge="1"><mxGeometry relative="1" as="geometry"><mxPoint x="10" as="offset"/><Array as="points"/><mxPoint x="255.5" y="4621" as="sourcePoint"/></mxGeometry></mxCell><mxCell id="473" style="vsdxID=379;edgeStyle=none;startArrow=none;endArrow=block;startSize=9;endSize=9;spacingTop=0;spacingBottom=0;spacingLeft=0;spacingRight=0;verticalAlign=middle;html=1;labelBackgroundColor=#FFFFFF;rounded=0;exitX=0.5;exitY=1;exitDx=0;exitDy=0;exitPerimeter=0;entryX=0.5;entryY=0;entryDx=0;entryDy=0;entryPerimeter=0;" parent="2" edge="1"><mxGeometry relative="1" as="geometry"><mxPoint y="-1" as="offset"/><Array as="points"><mxPoint x="270" y="1347"/><mxPoint x="730" y="1347"/></Array><mxPoint x="730" y="1372" as="targetPoint"/></mxGeometry></mxCell><mxCell id="474" style="vsdxID=377;edgeStyle=none;startArrow=none;endArrow=block;startSize=9;endSize=9;spacingTop=0;spacingBottom=0;spacingLeft=0;spacingRight=0;verticalAlign=middle;html=1;labelBackgroundColor=#FFFFFF;rounded=0;exitX=0.5;exitY=1;exitDx=0;exitDy=0;exitPerimeter=0;entryX=0.5;entryY=0;entryDx=0;entryDy=0;entryPerimeter=0;" parent="2" edge="1"><mxGeometry relative="1" as="geometry"><mxPoint x="10" as="offset"/><Array as="points"/><mxPoint x="270" y="375" as="sourcePoint"/></mxGeometry></mxCell><mxCell id="475" style="vsdxID=358;edgeStyle=none;startArrow=none;endArrow=block;startSize=9;endSize=9;spacingTop=0;spacingBottom=0;spacingLeft=0;spacingRight=0;verticalAlign=middle;html=1;labelBackgroundColor=#FFFFFF;rounded=0;exitX=1;exitY=0.5;exitDx=0;exitDy=0;exitPerimeter=0;entryX=0;entryY=0.5;entryDx=0;entryDy=0;entryPerimeter=0;" parent="2" edge="1"><mxGeometry relative="1" as="geometry"><mxPoint as="offset"/><Array as="points"/><mxPoint x="305" y="3082" as="sourcePoint"/></mxGeometry></mxCell><mxCell id="476" style="vsdxID=357;edgeStyle=none;startArrow=none;endArrow=block;startSize=9;endSize=9;spacingTop=0;spacingBottom=0;spacingLeft=0;spacingRight=0;verticalAlign=middle;html=1;labelBackgroundColor=#FFFFFF;rounded=0;exitX=0.5;exitY=1;exitDx=0;exitDy=0;exitPerimeter=0;entryX=0.5;entryY=0;entryDx=0;entryDy=0;entryPerimeter=0;" parent="2" edge="1"><mxGeometry relative="1" as="geometry"><mxPoint x="10" as="offset"/><Array as="points"/><mxPoint x="255" y="2806" as="sourcePoint"/></mxGeometry></mxCell><mxCell id="477" style="vsdxID=347;edgeStyle=none;startArrow=none;endArrow=block;startSize=9;endSize=9;spacingTop=0;spacingBottom=0;spacingLeft=0;spacingRight=0;verticalAlign=middle;html=1;labelBackgroundColor=#ffffff;rounded=0;exitX=0;exitY=0.5;exitDx=0;exitDy=0;exitPerimeter=0;entryX=1;entryY=0.5;entryDx=0;entryDy=0;entryPerimeter=0;" parent="2" edge="1"><mxGeometry relative="1" as="geometry"><mxPoint as="offset"/><Array as="points"/><mxPoint x="723.5" y="5674" as="sourcePoint"/></mxGeometry></mxCell><mxCell id="478" style="vsdxID=238;edgeStyle=none;startArrow=none;endArrow=block;startSize=9;endSize=9;spacingTop=0;spacingBottom=0;spacingLeft=0;spacingRight=0;verticalAlign=middle;html=1;labelBackgroundColor=#FFFFFF;rounded=0;exitX=0;exitY=0.5;exitDx=0;exitDy=0;exitPerimeter=0;entryX=1;entryY=0.5;entryDx=0;entryDy=0;entryPerimeter=0;" parent="2" edge="1"><mxGeometry relative="1" as="geometry"><mxPoint as="offset"/><Array as="points"/><mxPoint x="823" y="3990" as="sourcePoint"/></mxGeometry></mxCell><mxCell id="479" value="&lt;font style=&quot;font-size:11px;font-family:SimSun;color:#000000;direction:ltr;letter-spacing:0px;line-height:120%;opacity:1&quot;&gt;否&lt;br/&gt;&lt;/font&gt;" style="vsdxID=232;edgeStyle=none;startArrow=none;endArrow=block;startSize=9;endSize=9;spacingTop=0;spacingBottom=0;spacingLeft=0;spacingRight=0;verticalAlign=middle;html=1;labelBackgroundColor=#FFFFFF;rounded=0;align=center;exitX=1;exitY=0.5;exitDx=0;exitDy=0;exitPerimeter=0;entryX=0.5;entryY=0;entryDx=0;entryDy=0;entryPerimeter=0;" parent="2" edge="1"><mxGeometry relative="1" as="geometry"><mxPoint x="5" as="offset"/><Array as="points"><mxPoint x="1709.8200000000002" y="3680"/></Array><mxPoint x="1701" y="3680" as="sourcePoint"/></mxGeometry></mxCell><mxCell id="480" value="&lt;font style=&quot;font-size:11px;font-family:SimSun;color:#000000;direction:ltr;letter-spacing:0px;line-height:120%;opacity:1&quot;&gt;是&lt;br/&gt;&lt;/font&gt;" style="vsdxID=230;edgeStyle=none;startArrow=none;endArrow=block;startSize=9;endSize=9;spacingTop=0;spacingBottom=0;spacingLeft=0;spacingRight=0;verticalAlign=middle;html=1;labelBackgroundColor=#FFFFFF;rounded=0;align=center;exitX=0;exitY=0.5;exitDx=0;exitDy=0;exitPerimeter=0;entryX=1;entryY=0.5;entryDx=0;entryDy=0;entryPerimeter=0;" parent="2" edge="1"><mxGeometry relative="1" as="geometry"><mxPoint as="offset"/><Array as="points"><mxPoint x="1586" y="3680"/><mxPoint x="1586" y="3760"/></Array><mxPoint x="1601" y="3680" as="sourcePoint"/></mxGeometry></mxCell><mxCell id="481" value="&lt;font style=&quot;font-size:11px;font-family:SimSun;color:#000000;direction:ltr;letter-spacing:0px;line-height:120%;opacity:1&quot;&gt;是&lt;br/&gt;&lt;/font&gt;" style="vsdxID=24;edgeStyle=none;startArrow=none;endArrow=block;startSize=9;endSize=9;spacingTop=0;spacingBottom=0;spacingLeft=0;spacingRight=0;verticalAlign=middle;html=1;labelBackgroundColor=#FFFFFF;rounded=0;align=center;exitX=0;exitY=0.5;exitDx=0;exitDy=0;exitPerimeter=0;entryX=1;entryY=0.5;entryDx=0;entryDy=0;entryPerimeter=0;" parent="2" edge="1"><mxGeometry relative="1" as="geometry"><mxPoint as="offset"/><Array as="points"/><mxPoint x="680" y="1402" as="sourcePoint"/></mxGeometry></mxCell><mxCell id="482" style="vsdxID=26;edgeStyle=none;startArrow=none;endArrow=block;startSize=9;endSize=9;spacingTop=0;spacingBottom=0;spacingLeft=0;spacingRight=0;verticalAlign=middle;html=1;labelBackgroundColor=#ffffff;rounded=0;exitX=0.5;exitY=1;exitDx=0;exitDy=0;exitPerimeter=0;entryX=0.5;entryY=0;entryDx=0;entryDy=0;entryPerimeter=0;" parent="2" edge="1"><mxGeometry relative="1" as="geometry"><mxPoint x="10" as="offset"/><Array as="points"/><mxPoint x="534" y="1577" as="targetPoint"/></mxGeometry></mxCell><mxCell id="483" value="&lt;font style=&quot;font-size:11px;font-family:SimSun;color:#000000;direction:ltr;letter-spacing:0px;line-height:120%;opacity:1&quot;&gt;客户要求变更&lt;br/&gt;&lt;/font&gt;" style="vsdxID=30;edgeStyle=none;startArrow=none;endArrow=block;startSize=9;endSize=9;spacingTop=0;spacingBottom=0;spacingLeft=0;spacingRight=0;verticalAlign=middle;html=1;labelBackgroundColor=#FFFFFF;rounded=0;align=center;exitX=0;exitY=0.5;exitDx=0;exitDy=0;exitPerimeter=0;entryX=0;entryY=0.5;entryDx=0;entryDy=0;entryPerimeter=0;" parent="2" edge="1"><mxGeometry relative="1" as="geometry"><mxPoint x="-10" y="-1" as="offset"/><Array as="points"><mxPoint x="665" y="1257"/><mxPoint x="665" y="458.29999999999995"/></Array><mxPoint x="680" y="458" as="targetPoint"/></mxGeometry></mxCell><mxCell id="484" style="vsdxID=60;edgeStyle=none;startArrow=none;endArrow=none;startSize=9;endSize=9;spacingTop=0;spacingBottom=0;spacingLeft=0;spacingRight=0;verticalAlign=middle;html=1;labelBackgroundColor=#ffffff;rounded=0;exitX=0.5;exitY=1;exitDx=0;exitDy=0;exitPerimeter=0;entryX=0.5;entryY=0;entryDx=0;entryDy=0;entryPerimeter=0;" parent="2" edge="1"><mxGeometry relative="1" as="geometry"><mxPoint x="10" as="offset"/><Array as="points"/><mxPoint x="880" y="1156" as="targetPoint"/></mxGeometry></mxCell><mxCell id="485" value="&lt;font style=&quot;font-size:11px;font-family:SimSun;color:#000000;direction:ltr;letter-spacing:0px;line-height:120%;opacity:1&quot;&gt;否&lt;br/&gt;&lt;/font&gt;" style="vsdxID=61;edgeStyle=none;startArrow=none;endArrow=block;startSize=9;endSize=9;spacingTop=0;spacingBottom=0;spacingLeft=0;spacingRight=0;verticalAlign=middle;html=1;labelBackgroundColor=#ffffff;rounded=0;align=center;exitX=1;exitY=0.5;exitDx=0;exitDy=0;exitPerimeter=0;entryX=1;entryY=0.5;entryDx=0;entryDy=0;entryPerimeter=0;" parent="2" edge="1"><mxGeometry relative="1" as="geometry"><mxPoint x="10" as="offset"/><Array as="points"><mxPoint x="970" y="1186"/><mxPoint x="970" y="1066"/></Array><mxPoint x="930" y="1186" as="sourcePoint"/></mxGeometry></mxCell><mxCell id="486" style="vsdxID=64;edgeStyle=none;startArrow=none;endArrow=block;startSize=9;endSize=9;spacingTop=0;spacingBottom=0;spacingLeft=0;spacingRight=0;verticalAlign=middle;html=1;labelBackgroundColor=#FFFFFF;rounded=0;exitX=1;exitY=0.5;exitDx=0;exitDy=0;exitPerimeter=0;entryX=0;entryY=0.5;entryDx=0;entryDy=0;entryPerimeter=0;" parent="2" edge="1"><mxGeometry relative="1" as="geometry"><mxPoint as="offset"/><Array as="points"><mxPoint x="1110" y="1508"/><mxPoint x="1110" y="1072"/></Array><mxPoint x="780" y="1508" as="sourcePoint"/></mxGeometry></mxCell><mxCell id="487" style="vsdxID=71;edgeStyle=none;startArrow=none;endArrow=block;startSize=9;endSize=9;spacingTop=0;spacingBottom=0;spacingLeft=0;spacingRight=0;verticalAlign=middle;html=1;labelBackgroundColor=#FFFFFF;rounded=0;exitX=0.5;exitY=1;exitDx=0;exitDy=0;exitPerimeter=0;entryX=0.5;entryY=0;entryDx=0;entryDy=0;entryPerimeter=0;" parent="2" edge="1"><mxGeometry relative="1" as="geometry"><mxPoint x="10" as="offset"/><Array as="points"/><mxPoint x="1290" y="1216" as="sourcePoint"/></mxGeometry></mxCell><mxCell id="488" value="&lt;font style=&quot;font-size:11px;font-family:SimSun;color:#000000;direction:ltr;letter-spacing:0px;line-height:120%;opacity:1&quot;&gt;否&lt;br/&gt;&lt;/font&gt;" style="vsdxID=73;edgeStyle=none;startArrow=none;endArrow=block;startSize=9;endSize=9;spacingTop=0;spacingBottom=0;spacingLeft=0;spacingRight=0;verticalAlign=middle;html=1;labelBackgroundColor=#FFFFFF;rounded=0;align=center;exitX=1;exitY=0.5;exitDx=0;exitDy=0;exitPerimeter=0;entryX=0.5;entryY=0;entryDx=0;entryDy=0;entryPerimeter=0;" parent="2" edge="1"><mxGeometry relative="1" as="geometry"><mxPoint as="offset"/><Array as="points"><mxPoint x="1450" y="1296"/></Array><mxPoint x="1340" y="1296" as="sourcePoint"/></mxGeometry></mxCell><mxCell id="489" style="vsdxID=75;edgeStyle=none;startArrow=none;endArrow=block;startSize=9;endSize=9;spacingTop=0;spacingBottom=0;spacingLeft=0;spacingRight=0;verticalAlign=middle;html=1;labelBackgroundColor=#FFFFFF;rounded=0;exitX=0.5;exitY=1;exitDx=0;exitDy=0;exitPerimeter=0;entryX=0.5;entryY=0;entryDx=0;entryDy=0;entryPerimeter=0;" parent="2" edge="1"><mxGeometry relative="1" as="geometry"><mxPoint x="10" as="offset"/><Array as="points"/><mxPoint x="1290" y="1617" as="sourcePoint"/></mxGeometry></mxCell><mxCell id="490" style="vsdxID=77;edgeStyle=none;startArrow=none;endArrow=block;startSize=9;endSize=9;spacingTop=0;spacingBottom=0;spacingLeft=0;spacingRight=0;verticalAlign=middle;html=1;labelBackgroundColor=#FFFFFF;rounded=0;exitX=0;exitY=0.5;exitDx=0;exitDy=0;exitPerimeter=0;entryX=1;entryY=0.5;entryDx=0;entryDy=0;entryPerimeter=0;" parent="2" edge="1"><mxGeometry relative="1" as="geometry"><mxPoint as="offset"/><Array as="points"/><mxPoint x="650" y="1697" as="sourcePoint"/></mxGeometry></mxCell><mxCell id="491" value="&lt;font style=&quot;font-size:11px;font-family:SimSun;color:#000000;direction:ltr;letter-spacing:0px;line-height:120%;opacity:1&quot;&gt;是&lt;br/&gt;&lt;/font&gt;" style="vsdxID=78;edgeStyle=none;startArrow=none;endArrow=block;startSize=9;endSize=9;spacingTop=0;spacingBottom=0;spacingLeft=0;spacingRight=0;verticalAlign=middle;html=1;labelBackgroundColor=#FFFFFF;rounded=0;align=center;exitX=0;exitY=0.5;exitDx=0;exitDy=0;exitPerimeter=0;entryX=0;entryY=0.5;entryDx=0;entryDy=0;entryPerimeter=0;" parent="2" edge="1"><mxGeometry relative="1" as="geometry"><mxPoint as="offset"/><Array as="points"><mxPoint x="1138.27" y="1296"/><mxPoint x="1138.27" y="1786.6999999999998"/></Array><mxPoint x="1240" y="1296" as="sourcePoint"/></mxGeometry></mxCell><mxCell id="492" value="&lt;font style=&quot;font-size:11px;font-family:SimSun;color:#000000;direction:ltr;letter-spacing:0px;line-height:120%;opacity:1&quot;&gt;是&lt;br/&gt;&lt;/font&gt;" style="vsdxID=81;edgeStyle=none;startArrow=none;endArrow=block;startSize=9;endSize=9;spacingTop=0;spacingBottom=0;spacingLeft=0;spacingRight=0;verticalAlign=middle;html=1;labelBackgroundColor=#FFFFFF;rounded=0;align=center;exitX=0;exitY=0.5;exitDx=0;exitDy=0;exitPerimeter=0;entryX=0.5;entryY=0;entryDx=0;entryDy=0;entryPerimeter=0;" parent="2" edge="1"><mxGeometry relative="1" as="geometry"><mxPoint as="offset"/><Array as="points"><mxPoint x="1220" y="1697"/></Array><mxPoint x="1240" y="1697" as="sourcePoint"/></mxGeometry></mxCell><mxCell id="493" style="vsdxID=82;edgeStyle=none;startArrow=none;endArrow=block;startSize=9;endSize=9;spacingTop=0;spacingBottom=0;spacingLeft=0;spacingRight=0;verticalAlign=middle;html=1;labelBackgroundColor=#FFFFFF;rounded=0;exitX=0;exitY=0.5;exitDx=0;exitDy=0;exitPerimeter=0;entryX=1;entryY=0.5;entryDx=0;entryDy=0;entryPerimeter=0;" parent="2" edge="1"><mxGeometry relative="1" as="geometry"><mxPoint as="offset"/><Array as="points"><mxPoint x="1138.27" y="1787"/><mxPoint x="1138.27" y="1697"/></Array><mxPoint x="750" y="1697" as="targetPoint"/></mxGeometry></mxCell><mxCell id="494" value="&lt;font style=&quot;font-size:11px;font-family:SimSun;color:#000000;direction:ltr;letter-spacing:0px;line-height:120%;opacity:1&quot;&gt;否&lt;br/&gt;&lt;/font&gt;" style="vsdxID=85;edgeStyle=none;startArrow=none;endArrow=block;startSize=9;endSize=9;spacingTop=0;spacingBottom=0;spacingLeft=0;spacingRight=0;verticalAlign=middle;html=1;labelBackgroundColor=#FFFFFF;rounded=0;align=center;exitX=1;exitY=0.5;exitDx=0;exitDy=0;exitPerimeter=0;entryX=0.5;entryY=0;entryDx=0;entryDy=0;entryPerimeter=0;" parent="2" edge="1"><mxGeometry relative="1" as="geometry"><mxPoint as="offset"/><Array as="points"><mxPoint x="1394" y="1697"/></Array><mxPoint x="1340" y="1697" as="sourcePoint"/></mxGeometry></mxCell><mxCell id="495" style="vsdxID=87;edgeStyle=none;startArrow=none;endArrow=none;startSize=9;endSize=9;spacingTop=0;spacingBottom=0;spacingLeft=0;spacingRight=0;verticalAlign=middle;html=1;labelBackgroundColor=#ffffff;rounded=0;exitX=0;exitY=0.5;exitDx=0;exitDy=0;exitPerimeter=0;entryX=1;entryY=0.5;entryDx=0;entryDy=0;entryPerimeter=0;" parent="2" edge="1"><mxGeometry relative="1" as="geometry"><mxPoint as="offset"/><Array as="points"/><mxPoint x="750" y="1917" as="targetPoint"/></mxGeometry></mxCell><mxCell id="496" style="vsdxID=89;edgeStyle=none;startArrow=none;endArrow=block;startSize=9;endSize=9;strokeColor=#000000;spacingTop=0;spacingBottom=0;spacingLeft=0;spacingRight=0;verticalAlign=middle;html=1;labelBackgroundColor=#FFFFFF;rounded=0;exitX=0;exitY=0.5;exitDx=0;exitDy=0;exitPerimeter=0;entryX=1;entryY=0.5;entryDx=0;entryDy=0;entryPerimeter=0;" parent="2" edge="1"><mxGeometry relative="1" as="geometry"><mxPoint as="offset"/><Array as="points"/><mxPoint x="650" y="1917" as="sourcePoint"/></mxGeometry></mxCell><mxCell id="497" style="vsdxID=208;edgeStyle=none;startArrow=none;endArrow=block;startSize=9;endSize=9;spacingTop=0;spacingBottom=0;spacingLeft=0;spacingRight=0;verticalAlign=middle;html=1;labelBackgroundColor=#FFFFFF;rounded=0;exitX=0.5;exitY=1;exitDx=0;exitDy=0;exitPerimeter=0;entryX=0.5;entryY=0;entryDx=0;entryDy=0;entryPerimeter=0;" parent="2" edge="1"><mxGeometry relative="1" as="geometry"><mxPoint x="10" as="offset"/><Array as="points"/><mxPoint x="1027" y="2630" as="sourcePoint"/></mxGeometry></mxCell><mxCell id="498" style="vsdxID=219;edgeStyle=none;startArrow=none;endArrow=block;startSize=9;endSize=9;spacingTop=0;spacingBottom=0;spacingLeft=0;spacingRight=0;verticalAlign=middle;html=1;labelBackgroundColor=#FFFFFF;rounded=0;exitX=0.5;exitY=1;exitDx=0;exitDy=0;exitPerimeter=0;entryX=0.5;entryY=0;entryDx=0;entryDy=0;entryPerimeter=0;" parent="2" edge="1"><mxGeometry relative="1" as="geometry"><mxPoint x="10" as="offset"/><Array as="points"/><mxPoint x="1394" y="3250" as="sourcePoint"/></mxGeometry></mxCell><mxCell id="499" value="&lt;font style=&quot;font-size:11px;font-family:SimSun;color:#000000;direction:ltr;letter-spacing:0px;line-height:120%;opacity:1&quot;&gt;否&lt;br/&gt;&lt;/font&gt;" style="vsdxID=220;edgeStyle=none;startArrow=none;endArrow=block;startSize=9;endSize=9;spacingTop=0;spacingBottom=0;spacingLeft=0;spacingRight=0;verticalAlign=middle;html=1;labelBackgroundColor=#FFFFFF;rounded=0;align=center;exitX=0.5;exitY=1;exitDx=0;exitDy=0;exitPerimeter=0;entryX=0.5;entryY=0;entryDx=0;entryDy=0;entryPerimeter=0;" parent="2" edge="1"><mxGeometry relative="1" as="geometry"><mxPoint x="10" as="offset"/><Array as="points"/><mxPoint x="1394" y="3340" as="sourcePoint"/></mxGeometry></mxCell><mxCell id="500" value="&lt;font style=&quot;font-size:11px;font-family:SimSun;color:#000000;direction:ltr;letter-spacing:0px;line-height:120%;opacity:1&quot;&gt;是&lt;br/&gt;&lt;/font&gt;" style="vsdxID=221;edgeStyle=none;startArrow=none;endArrow=block;startSize=9;endSize=9;spacingTop=0;spacingBottom=0;spacingLeft=0;spacingRight=0;verticalAlign=middle;html=1;labelBackgroundColor=#FFFFFF;rounded=0;align=center;exitX=0;exitY=0.5;exitDx=0;exitDy=0;exitPerimeter=0;entryX=0.5;entryY=0;entryDx=0;entryDy=0;entryPerimeter=0;" parent="2" edge="1"><mxGeometry relative="1" as="geometry"><mxPoint x="-1" as="offset"/><Array as="points"><mxPoint x="1394" y="3150"/></Array><mxPoint x="1481" y="3150" as="sourcePoint"/></mxGeometry></mxCell><mxCell id="501" value="&lt;font style=&quot;font-size:11px;font-family:SimSun;color:#000000;direction:ltr;letter-spacing:0px;line-height:120%;opacity:1&quot;&gt;是&lt;br/&gt;&lt;/font&gt;" style="vsdxID=224;edgeStyle=none;startArrow=none;endArrow=block;startSize=9;endSize=9;spacingTop=0;spacingBottom=0;spacingLeft=0;spacingRight=0;verticalAlign=middle;html=1;labelBackgroundColor=#FFFFFF;rounded=0;align=center;exitX=0;exitY=0.5;exitDx=0;exitDy=0;exitPerimeter=0;entryX=0.5;entryY=0;entryDx=0;entryDy=0;entryPerimeter=0;" parent="2" edge="1"><mxGeometry relative="1" as="geometry"><mxPoint y="-1" as="offset"/><Array as="points"><mxPoint x="1251.43" y="3310"/></Array><mxPoint x="1344" y="3310" as="sourcePoint"/></mxGeometry></mxCell><mxCell id="502" style="vsdxID=227;edgeStyle=none;startArrow=none;endArrow=block;startSize=9;endSize=9;spacingTop=0;spacingBottom=0;spacingLeft=0;spacingRight=0;verticalAlign=middle;html=1;labelBackgroundColor=#FFFFFF;rounded=0;exitX=0.5;exitY=1;exitDx=0;exitDy=0;exitPerimeter=0;entryX=0.5;entryY=0;entryDx=0;entryDy=0;entryPerimeter=0;" parent="2" edge="1"><mxGeometry relative="1" as="geometry"><mxPoint x="10" as="offset"/><Array as="points"/><mxPoint x="1651" y="3430" as="sourcePoint"/></mxGeometry></mxCell></root></mxGraphModel></diagram><diagram name="page03" id="页-4"><mxGraphModel dx="1020" dy="724" grid="1" gridSize="10" guides="1" tooltips="1" connect="1" arrows="1" fold="1" page="1" pageScale="1" pageWidth="1920" pageHeight="1200" math="0" shadow="0"><root><mxCell id="0"/><mxCell id="1" value="流程图" parent="0"/><mxCell id="2" value="连接线" parent="0"/><mxCell id="321" value="&lt;p style=&quot;align:center;margin-left:0;margin-right:0;margin-top:0px;margin-bottom:0px;text-indent:0;valign:middle;direction:ltr;&quot;&gt;&lt;font style=&quot;font-size:11px;font-family:SimSun;color:#000000;direction:ltr;letter-spacing:0px;line-height:120%;opacity:1&quot;&gt;作废&lt;br/&gt;&lt;/font&gt;&lt;/p&gt;" style="vsdxID=1110;edgeStyle=none;startArrow=none;endArrow=block;startSize=9;endSize=9;spacingTop=0;spacingBottom=0;spacingLeft=0;spacingRight=0;verticalAlign=middle;html=1;labelBackgroundColor=#FFFFFF;rounded=0;align=center;exitX=0;exitY=0.75;exitDx=0;exitDy=0;exitPerimeter=0;entryX=1;entryY=0.75;entryDx=0;entryDy=0;entryPerimeter=0;" parent="2" edge="1"><mxGeometry relative="1" as="geometry"><mxPoint as="offset"/><Array as="points"/><mxPoint x="656" y="349" as="targetPoint"/></mxGeometry></mxCell><mxCell id="322" style="vsdxID=1109;edgeStyle=none;startArrow=none;endArrow=none;startSize=9;endSize=9;spacingTop=0;spacingBottom=0;spacingLeft=0;spacingRight=0;verticalAlign=middle;html=1;labelBackgroundColor=#FFFFFF;rounded=0;exitX=0;exitY=0.5135135135135135;exitDx=0;exitDy=0;exitPerimeter=0;entryX=1;entryY=0.5;entryDx=0;entryDy=0;entryPerimeter=0;" parent="2" edge="1"><mxGeometry relative="1" as="geometry"><mxPoint x="-1" as="offset"/><Array as="points"><mxPoint x="1065" y="1764"/><mxPoint x="1065" y="1716.0700000000002"/></Array><mxPoint x="965" y="1716" as="targetPoint"/></mxGeometry></mxCell><mxCell id="323" style="vsdxID=1108;edgeStyle=none;startArrow=none;endArrow=none;startSize=9;endSize=9;spacingTop=0;spacingBottom=0;spacingLeft=0;spacingRight=0;verticalAlign=middle;html=1;labelBackgroundColor=#FFFFFF;rounded=0;exitX=0.5;exitY=1;exitDx=0;exitDy=0;exitPerimeter=0;entryX=0.5;entryY=0;entryDx=0;entryDy=0;entryPerimeter=0;" parent="2" edge="1"><mxGeometry relative="1" as="geometry"><mxPoint x="-10" y="-1" as="offset"/><Array as="points"/><mxPoint x="1310" y="982" as="sourcePoint"/></mxGeometry></mxCell><mxCell id="324" style="vsdxID=1094;edgeStyle=none;startArrow=none;endArrow=none;startSize=9;endSize=9;spacingTop=0;spacingBottom=0;spacingLeft=0;spacingRight=0;verticalAlign=middle;html=1;labelBackgroundColor=#FFFFFF;rounded=0;exitX=1;exitY=0.5;exitDx=0;exitDy=0;exitPerimeter=0;entryX=1;entryY=0.5;entryDx=0;entryDy=0;entryPerimeter=0;" parent="2" edge="1"><mxGeometry relative="1" as="geometry"><mxPoint as="offset"/><Array as="points"><mxPoint x="1455" y="732"/><mxPoint x="1455" y="878.1300000000001"/></Array><mxPoint x="1440" y="732" as="sourcePoint"/></mxGeometry></mxCell><mxCell id="325" style="vsdxID=1093;edgeStyle=none;startArrow=none;endArrow=none;startSize=9;endSize=9;spacingTop=0;spacingBottom=0;spacingLeft=0;spacingRight=0;verticalAlign=middle;html=1;labelBackgroundColor=#FFFFFF;rounded=0;exitX=0.5;exitY=1;exitDx=0;exitDy=0;exitPerimeter=0;entryX=0.5;entryY=0;entryDx=0;entryDy=0;entryPerimeter=0;" parent="2" edge="1"><mxGeometry relative="1" as="geometry"><mxPoint x="10" y="-1" as="offset"/><Array as="points"/><mxPoint x="1310" y="902" as="sourcePoint"/></mxGeometry></mxCell><mxCell id="326" style="vsdxID=1068;edgeStyle=none;startArrow=none;endArrow=none;startSize=9;endSize=9;spacingTop=0;spacingBottom=0;spacingLeft=0;spacingRight=0;verticalAlign=middle;html=1;labelBackgroundColor=#FFFFFF;rounded=0;exitX=0.5;exitY=1;exitDx=0;exitDy=0;exitPerimeter=0;entryX=0.5;entryY=0;entryDx=0;entryDy=0;entryPerimeter=0;" parent="2" edge="1"><mxGeometry relative="1" as="geometry"><mxPoint x="10" y="-1" as="offset"/><Array as="points"/><mxPoint x="1310" y="823" as="sourcePoint"/></mxGeometry></mxCell><mxCell id="327" style="vsdxID=1044;edgeStyle=none;startArrow=none;endArrow=none;startSize=9;endSize=9;spacingTop=0;spacingBottom=0;spacingLeft=0;spacingRight=0;verticalAlign=middle;html=1;labelBackgroundColor=#FFFFFF;rounded=0;exitX=0;exitY=0.5;exitDx=0;exitDy=0;exitPerimeter=0;entryX=0.5;entryY=0;entryDx=0;entryDy=0;entryPerimeter=0;" parent="2" edge="1"><mxGeometry relative="1" as="geometry"><mxPoint as="offset"/><Array as="points"><mxPoint x="1310" y="732"/></Array><mxPoint x="1340" y="732" as="sourcePoint"/></mxGeometry></mxCell><mxCell id="328" style="vsdxID=1019;edgeStyle=none;startArrow=none;endArrow=none;startSize=9;endSize=9;spacingTop=0;spacingBottom=0;spacingLeft=0;spacingRight=0;verticalAlign=middle;html=1;labelBackgroundColor=#ffffff;rounded=0;exitX=0.5;exitY=1;exitDx=0;exitDy=0;exitPerimeter=0;entryX=0.5;entryY=0;entryDx=0;entryDy=0;entryPerimeter=0;" parent="2" edge="1"><mxGeometry relative="1" as="geometry"><mxPoint x="10" y="-1" as="offset"/><Array as="points"/><mxPoint x="1390" y="692" as="targetPoint"/></mxGeometry></mxCell><mxCell id="329" style="vsdxID=990;edgeStyle=none;startArrow=none;endArrow=none;startSize=9;endSize=9;spacingTop=0;spacingBottom=0;spacingLeft=0;spacingRight=0;verticalAlign=middle;html=1;labelBackgroundColor=#ffffff;rounded=0;exitX=0.5;exitY=1.027027027027027;exitDx=0;exitDy=0;exitPerimeter=0;entryX=1;entryY=0.5;entryDx=0;entryDy=0;entryPerimeter=0;" parent="2" edge="1"><mxGeometry relative="1" as="geometry"><mxPoint as="offset"/><Array as="points"><mxPoint x="1065" y="2143"/></Array><mxPoint x="1065" y="2073" as="sourcePoint"/></mxGeometry></mxCell><mxCell id="330" style="vsdxID=989;edgeStyle=none;startArrow=none;endArrow=none;startSize=9;endSize=9;spacingTop=0;spacingBottom=0;spacingLeft=0;spacingRight=0;verticalAlign=middle;html=1;labelBackgroundColor=#FFFFFF;rounded=0;exitX=0.5;exitY=1;exitDx=0;exitDy=0;exitPerimeter=0;entryX=0.5;entryY=0;entryDx=0;entryDy=0;entryPerimeter=0;" parent="2" edge="1"><mxGeometry relative="1" as="geometry"><mxPoint x="-1" as="offset"/><Array as="points"><mxPoint x="1255" y="1488"/><mxPoint x="980.0999999999999" y="1488"/></Array><mxPoint x="980" y="1503" as="targetPoint"/></mxGeometry></mxCell><mxCell id="331" value="&lt;font style=&quot;font-size:11px;font-family:SimSun;color:#000000;direction:ltr;letter-spacing:0px;line-height:120%;opacity:1&quot;&gt;N&lt;br/&gt;&lt;/font&gt;" style="vsdxID=939;edgeStyle=none;startArrow=none;endArrow=none;startSize=9;endSize=9;spacingTop=0;spacingBottom=0;spacingLeft=0;spacingRight=0;verticalAlign=middle;html=1;labelBackgroundColor=#ffffff;rounded=0;align=center;exitX=0;exitY=0.5;exitDx=0;exitDy=0;exitPerimeter=0;entryX=0;entryY=0.5;entryDx=0;entryDy=0;entryPerimeter=0;" parent="2" edge="1"><mxGeometry relative="1" as="geometry"><mxPoint as="offset"/><Array as="points"><mxPoint x="850" y="1854"/><mxPoint x="850" y="2142.33"/></Array><mxPoint x="865" y="1854" as="sourcePoint"/></mxGeometry></mxCell><mxCell id="332" value="&lt;font style=&quot;font-size:11px;font-family:SimSun;color:#000000;direction:ltr;letter-spacing:0px;line-height:120%;opacity:1&quot;&gt;N&lt;br/&gt;&lt;/font&gt;" style="vsdxID=938;edgeStyle=none;startArrow=none;endArrow=none;startSize=9;endSize=9;spacingTop=0;spacingBottom=0;spacingLeft=0;spacingRight=0;verticalAlign=middle;html=1;labelBackgroundColor=#ffffff;rounded=0;align=center;exitX=0;exitY=0.5;exitDx=0;exitDy=0;exitPerimeter=0;entryX=0.5;entryY=0;entryDx=0;entryDy=0;entryPerimeter=0;" parent="2" edge="1"><mxGeometry relative="1" as="geometry"><mxPoint as="offset"/><Array as="points"><mxPoint x="915" y="1954"/></Array><mxPoint x="935" y="1954" as="sourcePoint"/></mxGeometry></mxCell><mxCell id="333" value="&lt;font style=&quot;font-size:11px;font-family:SimSun;color:#000000;direction:ltr;letter-spacing:0px;line-height:120%;opacity:1&quot;&gt;Y&lt;br/&gt;&lt;/font&gt;" style="vsdxID=924;edgeStyle=none;startArrow=none;endArrow=none;startSize=9;endSize=9;spacingTop=0;spacingBottom=0;spacingLeft=0;spacingRight=0;verticalAlign=middle;html=1;labelBackgroundColor=#ffffff;rounded=0;align=center;exitX=1;exitY=0.5;exitDx=0;exitDy=0;exitPerimeter=0;entryX=0.5;entryY=0;entryDx=0;entryDy=0;entryPerimeter=0;" parent="2" edge="1"><mxGeometry relative="1" as="geometry"><mxPoint as="offset"/><Array as="points"><mxPoint x="985" y="1854"/></Array><mxPoint x="965" y="1854" as="sourcePoint"/></mxGeometry></mxCell><mxCell id="334" value="&lt;font style=&quot;font-size:11px;font-family:SimSun;color:#000000;direction:ltr;letter-spacing:0px;line-height:120%;opacity:1&quot;&gt;Y&lt;br/&gt;&lt;/font&gt;" style="vsdxID=923;edgeStyle=none;startArrow=none;endArrow=none;startSize=9;endSize=9;spacingTop=0;spacingBottom=0;spacingLeft=0;spacingRight=0;verticalAlign=middle;html=1;labelBackgroundColor=#ffffff;rounded=0;align=center;exitX=1;exitY=0.5;exitDx=0;exitDy=0;exitPerimeter=0;entryX=0.5;entryY=0;entryDx=0;entryDy=0;entryPerimeter=0;" parent="2" edge="1"><mxGeometry relative="1" as="geometry"><mxPoint as="offset"/><Array as="points"><mxPoint x="1065" y="1954"/></Array><mxPoint x="1065" y="2035" as="targetPoint"/></mxGeometry></mxCell><mxCell id="335" style="vsdxID=879;edgeStyle=none;startArrow=none;endArrow=none;startSize=9;endSize=9;spacingTop=0;spacingBottom=0;spacingLeft=0;spacingRight=0;verticalAlign=middle;html=1;labelBackgroundColor=#ffffff;rounded=0;exitX=0.5;exitY=1;exitDx=0;exitDy=0;exitPerimeter=0;entryX=0.5;entryY=0;entryDx=0;entryDy=0;entryPerimeter=0;" parent="2" edge="1"><mxGeometry relative="1" as="geometry"><mxPoint x="-10" as="offset"/><Array as="points"><mxPoint x="915" y="1771"/><mxPoint x="914.8" y="1771"/></Array><mxPoint x="915" y="1756" as="sourcePoint"/></mxGeometry></mxCell><mxCell id="336" style="vsdxID=787;edgeStyle=none;startArrow=none;endArrow=none;startSize=9;endSize=9;spacingTop=0;spacingBottom=0;spacingLeft=0;spacingRight=0;verticalAlign=middle;html=1;labelBackgroundColor=#ffffff;rounded=0;exitX=0.5;exitY=1;exitDx=0;exitDy=0;exitPerimeter=0;entryX=0.5;entryY=0;entryDx=0;entryDy=0;entryPerimeter=0;" parent="2" edge="1"><mxGeometry relative="1" as="geometry"><mxPoint x="10" as="offset"/><Array as="points"/><mxPoint x="1255" y="1325" as="sourcePoint"/></mxGeometry></mxCell><mxCell id="337" style="vsdxID=786;edgeStyle=none;startArrow=none;endArrow=none;startSize=9;endSize=9;spacingTop=0;spacingBottom=0;spacingLeft=0;spacingRight=0;verticalAlign=middle;html=1;labelBackgroundColor=#ffffff;rounded=0;exitX=0.5;exitY=1;exitDx=0;exitDy=0;exitPerimeter=0;entryX=0.5;entryY=0;entryDx=0;entryDy=0;entryPerimeter=0;" parent="2" edge="1"><mxGeometry relative="1" as="geometry"><mxPoint x="10" as="offset"/><Array as="points"/><mxPoint x="1255" y="1247" as="sourcePoint"/></mxGeometry></mxCell><mxCell id="338" value="&lt;font style=&quot;font-size:11px;font-family:SimSun;color:#44749f;direction:ltr;letter-spacing:0px;line-height:120%;opacity:1&quot;&gt;N&lt;br/&gt;&lt;/font&gt;" style="vsdxID=184;edgeStyle=none;startArrow=none;endArrow=block;startSize=5;endSize=5;strokeColor=#5b9bd5;spacingTop=0;spacingBottom=0;spacingLeft=0;spacingRight=0;verticalAlign=middle;html=1;labelBackgroundColor=#ffffff;rounded=0;align=center;exitX=0.5;exitY=1;exitDx=0;exitDy=0;exitPerimeter=0;entryX=0.5;entryY=0;entryDx=0;entryDy=0;entryPerimeter=0;" parent="2" edge="1"><mxGeometry relative="1" as="geometry"><mxPoint x="10" as="offset"/><Array as="points"><mxPoint x="310" y="442.27"/><mxPoint x="310" y="442.27"/></Array><mxPoint x="310" y="442" as="sourcePoint"/></mxGeometry></mxCell><mxCell id="339" style="vsdxID=135;edgeStyle=none;startArrow=none;endArrow=block;startSize=5;endSize=5;strokeColor=#5b9bd5;spacingTop=0;spacingBottom=0;spacingLeft=0;spacingRight=0;verticalAlign=middle;html=1;labelBackgroundColor=#ffffff;rounded=0;exitX=0.5;exitY=1;exitDx=0;exitDy=0;exitPerimeter=0;entryX=0.5;entryY=0;entryDx=0;entryDy=0;entryPerimeter=0;" parent="2" edge="1"><mxGeometry relative="1" as="geometry"><mxPoint x="10" y="-1" as="offset"/><Array as="points"/><mxPoint x="310" y="963" as="targetPoint"/></mxGeometry></mxCell><mxCell id="340" value="&lt;font style=&quot;font-size:11px;font-family:SimSun;color:#44749f;direction:ltr;letter-spacing:0px;line-height:120%;opacity:1&quot;&gt;Y&lt;br/&gt;&lt;/font&gt;" style="vsdxID=72;edgeStyle=none;startArrow=none;endArrow=block;startSize=5;endSize=5;strokeColor=#5b9bd5;spacingTop=0;spacingBottom=0;spacingLeft=0;spacingRight=0;verticalAlign=middle;html=1;labelBackgroundColor=#ffffff;rounded=0;align=center;exitX=0.5;exitY=1;exitDx=0;exitDy=0;exitPerimeter=0;entryX=0.5;entryY=0;entryDx=0;entryDy=0;entryPerimeter=0;" parent="2" edge="1"><mxGeometry relative="1" as="geometry"><mxPoint x="10" as="offset"/><Array as="points"/><mxPoint x="310" y="753" as="targetPoint"/></mxGeometry></mxCell><mxCell id="341" value="&lt;font style=&quot;font-size:11px;font-family:SimSun;color:#44749f;direction:ltr;letter-spacing:0px;line-height:120%;opacity:1&quot;&gt;N&lt;br/&gt;&lt;/font&gt;" style="vsdxID=70;edgeStyle=none;startArrow=none;endArrow=block;startSize=5;endSize=5;strokeColor=#5b9bd5;spacingTop=0;spacingBottom=0;spacingLeft=0;spacingRight=0;verticalAlign=middle;html=1;labelBackgroundColor=#ffffff;rounded=0;align=center;exitX=0;exitY=0.5;exitDx=0;exitDy=0;exitPerimeter=0;entryX=1;entryY=0.5;entryDx=0;entryDy=0;entryPerimeter=0;" parent="2" edge="1"><mxGeometry relative="1" as="geometry"><mxPoint as="offset"/><Array as="points"/><mxPoint x="260" y="532" as="sourcePoint"/></mxGeometry></mxCell><mxCell id="342" style="vsdxID=30;edgeStyle=none;startArrow=none;endArrow=block;startSize=5;endSize=5;strokeColor=#5b9bd5;spacingTop=0;spacingBottom=0;spacingLeft=0;spacingRight=0;verticalAlign=middle;html=1;labelBackgroundColor=#ffffff;rounded=0;exitX=0.5;exitY=1;exitDx=0;exitDy=0;exitPerimeter=0;entryX=0.5;entryY=0;entryDx=0;entryDy=0;entryPerimeter=0;" parent="2" edge="1"><mxGeometry relative="1" as="geometry"><mxPoint x="10" y="-1" as="offset"/><Array as="points"/><mxPoint x="310" y="183" as="sourcePoint"/></mxGeometry></mxCell><mxCell id="343" value="&lt;font style=&quot;font-size:11px;font-family:SimSun;color:#44749f;direction:ltr;letter-spacing:0px;line-height:120%;opacity:1&quot;&gt;Y&lt;br/&gt;&lt;/font&gt;" style="vsdxID=186;edgeStyle=none;startArrow=none;endArrow=block;startSize=5;endSize=5;strokeColor=#5b9bd5;spacingTop=0;spacingBottom=0;spacingLeft=0;spacingRight=0;verticalAlign=middle;html=1;labelBackgroundColor=#ffffff;rounded=0;align=center;exitX=1;exitY=0.5;exitDx=0;exitDy=0;exitPerimeter=0;entryX=0.5;entryY=0;entryDx=0;entryDy=0;entryPerimeter=0;" parent="2" edge="1"><mxGeometry relative="1" as="geometry"><mxPoint y="-1" as="offset"/><Array as="points"><mxPoint x="530" y="402"/></Array><mxPoint x="360" y="402" as="sourcePoint"/></mxGeometry></mxCell><mxCell id="344" value="&lt;p style=&quot;align:center;margin-left:0;margin-right:0;margin-top:0px;margin-bottom:0px;text-indent:0;valign:middle;direction:ltr;&quot;&gt;&lt;font style=&quot;font-size:11px;font-family:Calibri;color:#4f88bb;direction:ltr;letter-spacing:0px;line-height:120%;opacity:1&quot;&gt;N&lt;br/&gt;&lt;/font&gt;&lt;/p&gt;" style="vsdxID=210;edgeStyle=none;startArrow=none;endArrow=none;startSize=9;endSize=9;spacingTop=0;spacingBottom=0;spacingLeft=0;spacingRight=0;verticalAlign=middle;html=1;labelBackgroundColor=#FFFFFF;rounded=0;align=center;exitX=1;exitY=0.5;exitDx=0;exitDy=0;exitPerimeter=0;entryX=1;entryY=0.5;entryDx=0;entryDy=0;entryPerimeter=0;" parent="2" edge="1"><mxGeometry relative="1" as="geometry"><mxPoint x="-10" as="offset"/><Array as="points"><mxPoint x="375" y="663"/><mxPoint x="375" y="875.27"/></Array><mxPoint x="360" y="875" as="targetPoint"/></mxGeometry></mxCell><mxCell id="345" style="vsdxID=211;edgeStyle=none;startArrow=none;endArrow=none;startSize=9;endSize=9;spacingTop=0;spacingBottom=0;spacingLeft=0;spacingRight=0;verticalAlign=middle;html=1;labelBackgroundColor=#FFFFFF;rounded=0;exitX=0.5;exitY=1;exitDx=0;exitDy=0;exitPerimeter=0;entryX=0.5;entryY=0;entryDx=0;entryDy=0;entryPerimeter=0;" parent="2" edge="1"><mxGeometry relative="1" as="geometry"><mxPoint x="10" as="offset"/><Array as="points"/><mxPoint x="310" y="801" as="sourcePoint"/></mxGeometry></mxCell><mxCell id="346" style="vsdxID=212;edgeStyle=none;startArrow=none;endArrow=none;startSize=9;endSize=9;spacingTop=0;spacingBottom=0;spacingLeft=0;spacingRight=0;verticalAlign=middle;html=1;labelBackgroundColor=#FFFFFF;rounded=0;exitX=0.5;exitY=1;exitDx=0;exitDy=0;exitPerimeter=0;entryX=0.5;entryY=0;entryDx=0;entryDy=0;entryPerimeter=0;" parent="2" edge="1"><mxGeometry relative="1" as="geometry"><mxPoint x="10" y="-1" as="offset"/><Array as="points"/><mxPoint x="310" y="1011" as="sourcePoint"/></mxGeometry></mxCell><mxCell id="347" value="&lt;font style=&quot;font-size:11px;font-family:SimSun;color:#000000;direction:ltr;letter-spacing:0px;line-height:120%;opacity:1&quot;&gt;Y&lt;br/&gt;&lt;/font&gt;" style="vsdxID=255;edgeStyle=none;startArrow=none;endArrow=none;startSize=9;endSize=9;spacingTop=0;spacingBottom=0;spacingLeft=0;spacingRight=0;verticalAlign=middle;html=1;labelBackgroundColor=#ffffff;rounded=0;align=center;exitX=0.5;exitY=1;exitDx=0;exitDy=0;exitPerimeter=0;entryX=0.5;entryY=0;entryDx=0;entryDy=0;entryPerimeter=0;" parent="2" edge="1"><mxGeometry relative="1" as="geometry"><mxPoint x="10" as="offset"/><Array as="points"/><mxPoint x="310" y="572" as="sourcePoint"/></mxGeometry></mxCell><mxCell id="348" value="&lt;p style=&quot;align:center;margin-left:0;margin-right:0;margin-top:0px;margin-bottom:0px;text-indent:0;valign:middle;direction:ltr;&quot;&gt;&lt;font style=&quot;font-size:11px;font-family:Calibri;color:#4f88bb;direction:ltr;letter-spacing:0px;line-height:120%;opacity:1&quot;&gt;Y&lt;br/&gt;&lt;/font&gt;&lt;/p&gt;" style="vsdxID=274;edgeStyle=none;startArrow=none;endArrow=none;startSize=9;endSize=9;spacingTop=0;spacingBottom=0;spacingLeft=0;spacingRight=0;verticalAlign=middle;html=1;labelBackgroundColor=#FFFFFF;rounded=0;align=center;exitX=0.5;exitY=1;exitDx=0;exitDy=0;exitPerimeter=0;entryX=0.5;entryY=0;entryDx=0;entryDy=0;entryPerimeter=0;" parent="2" edge="1"><mxGeometry relative="1" as="geometry"><mxPoint x="10" as="offset"/><Array as="points"/><mxPoint x="310" y="362" as="targetPoint"/></mxGeometry></mxCell><mxCell id="349" style="vsdxID=276;edgeStyle=none;startArrow=none;endArrow=none;startSize=9;endSize=9;spacingTop=0;spacingBottom=0;spacingLeft=0;spacingRight=0;verticalAlign=middle;html=1;labelBackgroundColor=#ffffff;rounded=0;exitX=0;exitY=0.5;exitDx=0;exitDy=0;exitPerimeter=0;entryX=1;entryY=0.5;entryDx=0;entryDy=0;entryPerimeter=0;" parent="2" edge="1"><mxGeometry relative="1" as="geometry"><mxPoint as="offset"/><Array as="points"/><mxPoint x="260" y="272" as="sourcePoint"/></mxGeometry></mxCell><mxCell id="350" style="vsdxID=291;edgeStyle=none;startArrow=none;endArrow=none;startSize=9;endSize=9;spacingTop=0;spacingBottom=0;spacingLeft=0;spacingRight=0;verticalAlign=middle;html=1;labelBackgroundColor=#FFFFFF;rounded=0;exitX=0.5;exitY=1;exitDx=0;exitDy=0;exitPerimeter=0;entryX=0;entryY=0.5;entryDx=0;entryDy=0;entryPerimeter=0;" parent="2" edge="1"><mxGeometry relative="1" as="geometry"><mxPoint as="offset"/><Array as="points"><mxPoint x="310" y="1282.3000000000002"/></Array><mxPoint x="310" y="1168" as="sourcePoint"/></mxGeometry></mxCell><mxCell id="351" style="vsdxID=292;edgeStyle=none;startArrow=none;endArrow=none;startSize=9;endSize=9;spacingTop=0;spacingBottom=0;spacingLeft=0;spacingRight=0;verticalAlign=middle;html=1;labelBackgroundColor=#FFFFFF;rounded=0;exitX=0.5;exitY=1;exitDx=0;exitDy=0;exitPerimeter=0;entryX=1;entryY=0.5;entryDx=0;entryDy=0;entryPerimeter=0;" parent="2" edge="1"><mxGeometry relative="1" as="geometry"><mxPoint as="offset"/><Array as="points"><mxPoint x="530" y="1282.3000000000002"/></Array><mxPoint x="530" y="1168" as="sourcePoint"/></mxGeometry></mxCell><mxCell id="352" value="&lt;p style=&quot;align:center;margin-left:0;margin-right:0;margin-top:0px;margin-bottom:0px;text-indent:0;valign:middle;direction:ltr;&quot;&gt;&lt;font style=&quot;font-size:11px;font-family:SimSun;color:#000000;direction:ltr;letter-spacing:0px;line-height:120%;opacity:1&quot;&gt;打印&lt;br/&gt;&lt;/font&gt;&lt;/p&gt;" style="vsdxID=364;edgeStyle=none;startArrow=none;endArrow=block;startSize=9;endSize=9;spacingTop=0;spacingBottom=0;spacingLeft=0;spacingRight=0;verticalAlign=middle;html=1;labelBackgroundColor=#ffffff;rounded=0;align=center;exitX=1;exitY=0.5;exitDx=0;exitDy=0;exitPerimeter=0;entryX=0;entryY=0.5;entryDx=0;entryDy=0;entryPerimeter=0;" parent="2" edge="1"><mxGeometry relative="1" as="geometry"><mxPoint as="offset"/><Array as="points"/><mxPoint x="654" y="155" as="sourcePoint"/></mxGeometry></mxCell><mxCell id="353" style="vsdxID=394;edgeStyle=none;startArrow=none;endArrow=block;startSize=5;endSize=5;strokeColor=#5b9bd5;spacingTop=0;spacingBottom=0;spacingLeft=0;spacingRight=0;verticalAlign=middle;html=1;labelBackgroundColor=#ffffff;rounded=0;exitX=0.5;exitY=1;exitDx=0;exitDy=0;exitPerimeter=0;entryX=0.5;entryY=0;entryDx=0;entryDy=0;entryPerimeter=0;" parent="2" edge="1"><mxGeometry relative="1" as="geometry"><mxPoint x="10" y="-1" as="offset"/><Array as="points"/><mxPoint x="1130" y="643" as="sourcePoint"/></mxGeometry></mxCell><mxCell id="354" value="&lt;font style=&quot;font-size:11px;font-family:SimSun;color:#44749f;direction:ltr;letter-spacing:0px;line-height:120%;opacity:1&quot;&gt;N&lt;br/&gt;&lt;/font&gt;" style="vsdxID=411;edgeStyle=none;startArrow=none;endArrow=block;startSize=5;endSize=5;strokeColor=#5b9bd5;spacingTop=0;spacingBottom=0;spacingLeft=0;spacingRight=0;verticalAlign=middle;html=1;labelBackgroundColor=#ffffff;rounded=0;align=center;exitX=0;exitY=0.5;exitDx=0;exitDy=0;exitPerimeter=0;entryX=1;entryY=0.5;entryDx=0;entryDy=0;entryPerimeter=0;" parent="2" edge="1"><mxGeometry relative="1" as="geometry"><mxPoint as="offset"/><Array as="points"/><mxPoint x="1080" y="992" as="sourcePoint"/></mxGeometry></mxCell><mxCell id="355" value="&lt;font style=&quot;font-size:11px;font-family:SimSun;color:#44749f;direction:ltr;letter-spacing:0px;line-height:120%;opacity:1&quot;&gt;N&lt;br/&gt;&lt;/font&gt;" style="vsdxID=412;edgeStyle=none;startArrow=none;endArrow=block;startSize=5;endSize=5;strokeColor=#5b9bd5;spacingTop=0;spacingBottom=0;spacingLeft=0;spacingRight=0;verticalAlign=middle;html=1;labelBackgroundColor=#ffffff;rounded=0;align=center;exitX=0.5;exitY=1;exitDx=0;exitDy=0;exitPerimeter=0;entryX=0.5;entryY=0;entryDx=0;entryDy=0;entryPerimeter=0;" parent="2" edge="1"><mxGeometry relative="1" as="geometry"><mxPoint x="10" as="offset"/><Array as="points"/><mxPoint x="1130" y="902" as="sourcePoint"/></mxGeometry></mxCell><mxCell id="356" value="&lt;p style=&quot;align:center;margin-left:0;margin-right:0;margin-top:0px;margin-bottom:0px;text-indent:0;valign:middle;direction:ltr;&quot;&gt;&lt;font style=&quot;font-size:11px;font-family:Calibri;color:#4f88bb;direction:ltr;letter-spacing:0px;line-height:120%;opacity:1&quot;&gt;Y&lt;br/&gt;&lt;/font&gt;&lt;/p&gt;" style="vsdxID=428;edgeStyle=none;startArrow=none;endArrow=none;startSize=9;endSize=9;spacingTop=0;spacingBottom=0;spacingLeft=0;spacingRight=0;verticalAlign=middle;html=1;labelBackgroundColor=#FFFFFF;rounded=0;align=center;exitX=0.5;exitY=1;exitDx=0;exitDy=0;exitPerimeter=0;entryX=0.5;entryY=0;entryDx=0;entryDy=0;entryPerimeter=0;" parent="2" edge="1"><mxGeometry relative="1" as="geometry"><mxPoint x="10" as="offset"/><Array as="points"/><mxPoint x="1130" y="822" as="targetPoint"/></mxGeometry></mxCell><mxCell id="357" style="vsdxID=430;edgeStyle=none;startArrow=none;endArrow=none;startSize=9;endSize=9;spacingTop=0;spacingBottom=0;spacingLeft=0;spacingRight=0;verticalAlign=middle;html=1;labelBackgroundColor=#ffffff;rounded=0;exitX=0;exitY=0.5;exitDx=0;exitDy=0;exitPerimeter=0;entryX=1;entryY=0.5;entryDx=0;entryDy=0;entryPerimeter=0;" parent="2" edge="1"><mxGeometry relative="1" as="geometry"><mxPoint as="offset"/><Array as="points"/><mxPoint x="1080" y="732" as="sourcePoint"/></mxGeometry></mxCell><mxCell id="358" value="&lt;p style=&quot;align:center;margin-left:0;margin-right:0;margin-top:0px;margin-bottom:0px;text-indent:0;valign:middle;direction:ltr;&quot;&gt;&lt;font style=&quot;font-size:11px;font-family:Calibri;color:#4f88bb;direction:ltr;letter-spacing:0px;line-height:120%;opacity:1&quot;&gt;N&lt;br/&gt;&lt;/font&gt;&lt;/p&gt;" style="vsdxID=446;edgeStyle=none;startArrow=none;endArrow=none;startSize=9;endSize=9;spacingTop=0;spacingBottom=0;spacingLeft=0;spacingRight=0;verticalAlign=middle;html=1;labelBackgroundColor=#FFFFFF;rounded=0;align=center;exitX=0.5;exitY=1;exitDx=0;exitDy=0;exitPerimeter=0;entryX=0.5;entryY=0;entryDx=0;entryDy=0;entryPerimeter=0;" parent="2" edge="1"><mxGeometry relative="1" as="geometry"><mxPoint x="10" y="-1" as="offset"/><Array as="points"/><mxPoint x="1130" y="1032" as="sourcePoint"/></mxGeometry></mxCell><mxCell id="359" value="&lt;p style=&quot;align:center;margin-left:0;margin-right:0;margin-top:0px;margin-bottom:0px;text-indent:0;valign:middle;direction:ltr;&quot;&gt;&lt;font style=&quot;font-size:11px;font-family:Calibri;color:#4f88bb;direction:ltr;letter-spacing:0px;line-height:120%;opacity:1&quot;&gt;Y&lt;br/&gt;&lt;/font&gt;&lt;/p&gt;" style="vsdxID=495;edgeStyle=none;startArrow=none;endArrow=none;startSize=9;endSize=9;spacingTop=0;spacingBottom=0;spacingLeft=0;spacingRight=0;verticalAlign=middle;html=1;labelBackgroundColor=#FFFFFF;rounded=0;align=center;exitX=0;exitY=0.5;exitDx=0;exitDy=0;exitPerimeter=0;entryX=0.5;entryY=0;entryDx=0;entryDy=0;entryPerimeter=0;" parent="2" edge="1"><mxGeometry relative="1" as="geometry"><mxPoint as="offset"/><Array as="points"><mxPoint x="980" y="1128"/></Array><mxPoint x="1080" y="1128" as="sourcePoint"/></mxGeometry></mxCell><mxCell id="360" value="&lt;p style=&quot;align:center;margin-left:0;margin-right:0;margin-top:0px;margin-bottom:0px;text-indent:0;valign:middle;direction:ltr;&quot;&gt;&lt;font style=&quot;font-size:11px;font-family:SimSun;color:#000000;direction:ltr;letter-spacing:0px;line-height:120%;opacity:1&quot;&gt;生成&lt;/font&gt;&lt;font style=&quot;font-size:11px;font-family:Themed;color:#000000;direction:ltr;letter-spacing:0px;line-height:120%;opacity:1&quot;&gt;行程单&lt;br/&gt;&lt;/font&gt;&lt;/p&gt;" style="vsdxID=565;edgeStyle=none;startArrow=none;endArrow=block;startSize=9;endSize=9;spacingTop=0;spacingBottom=0;spacingLeft=0;spacingRight=0;verticalAlign=middle;html=1;labelBackgroundColor=#ffffff;rounded=0;align=center;exitX=1;exitY=0.5;exitDx=0;exitDy=0;exitPerimeter=0;entryX=0;entryY=0.5;entryDx=0;entryDy=0;entryPerimeter=0;" parent="2" edge="1"><mxGeometry relative="1" as="geometry"><mxPoint as="offset"/><Array as="points"/><mxPoint x="656" y="329" as="sourcePoint"/></mxGeometry></mxCell><mxCell id="361" value="&lt;p style=&quot;align:center;margin-left:0;margin-right:0;margin-top:0px;margin-bottom:0px;text-indent:0;valign:middle;direction:ltr;&quot;&gt;&lt;font style=&quot;font-size:11px;font-family:SimSun;color:#000000;direction:ltr;letter-spacing:0px;line-height:120%;opacity:1&quot;&gt;上发&lt;br/&gt;&lt;/font&gt;&lt;/p&gt;" style="vsdxID=566;edgeStyle=none;startArrow=none;endArrow=block;startSize=9;endSize=9;spacingTop=0;spacingBottom=0;spacingLeft=0;spacingRight=0;verticalAlign=middle;html=1;labelBackgroundColor=#ffffff;rounded=0;align=center;exitX=0.5;exitY=1;exitDx=0;exitDy=0;exitPerimeter=0;entryX=0.5;entryY=0;entryDx=0;entryDy=0;entryPerimeter=0;" parent="2" edge="1"><mxGeometry relative="1" as="geometry"><mxPoint x="10" y="-1" as="offset"/><Array as="points"/><mxPoint x="878" y="369" as="sourcePoint"/></mxGeometry></mxCell><mxCell id="362" value="&lt;p style=&quot;align:center;margin-left:0;margin-right:0;margin-top:0px;margin-bottom:0px;text-indent:0;valign:middle;direction:ltr;&quot;&gt;&lt;font style=&quot;font-size:11px;font-family:SimSun;color:#000000;direction:ltr;letter-spacing:0px;line-height:120%;opacity:1&quot;&gt;作废&lt;br/&gt;&lt;/font&gt;&lt;/p&gt;" style="vsdxID=567;edgeStyle=none;startArrow=none;endArrow=block;startSize=9;endSize=9;spacingTop=0;spacingBottom=0;spacingLeft=0;spacingRight=0;verticalAlign=middle;html=1;labelBackgroundColor=#ffffff;rounded=0;align=center;exitX=0;exitY=0.5;exitDx=0;exitDy=0;exitPerimeter=0;entryX=1;entryY=0.9;entryDx=0;entryDy=0;entryPerimeter=0;" parent="2" edge="1"><mxGeometry relative="1" as="geometry"><mxPoint x="-1" y="-1" as="offset"/><Array as="points"/><mxPoint x="656" y="361" as="targetPoint"/></mxGeometry></mxCell><mxCell id="363" value="&lt;p style=&quot;align:center;margin-left:0;margin-right:0;margin-top:0px;margin-bottom:0px;text-indent:0;valign:middle;direction:ltr;&quot;&gt;&lt;font style=&quot;font-size:11px;font-family:Calibri;color:#4f88bb;direction:ltr;letter-spacing:0px;line-height:120%;opacity:1&quot;&gt;N&lt;br/&gt;&lt;/font&gt;&lt;/p&gt;" style="vsdxID=614;edgeStyle=none;startArrow=none;endArrow=none;startSize=9;endSize=9;spacingTop=0;spacingBottom=0;spacingLeft=0;spacingRight=0;verticalAlign=middle;html=1;labelBackgroundColor=#FFFFFF;rounded=0;align=center;exitX=1;exitY=0.5;exitDx=0;exitDy=0;exitPerimeter=0;entryX=0.5;entryY=0;entryDx=0;entryDy=0;entryPerimeter=0;" parent="2" edge="1"><mxGeometry relative="1" as="geometry"><mxPoint x="-1" as="offset"/><Array as="points"><mxPoint x="1254.9" y="1128"/></Array><mxPoint x="1180" y="1128" as="sourcePoint"/></mxGeometry></mxCell><mxCell id="364" value="&lt;p style=&quot;align:center;margin-left:0;margin-right:0;margin-top:0px;margin-bottom:0px;text-indent:0;valign:middle;direction:ltr;&quot;&gt;&lt;font style=&quot;font-size:11px;font-family:Calibri;color:#4f88bb;direction:ltr;letter-spacing:0px;line-height:120%;opacity:1&quot;&gt;Y&lt;br/&gt;&lt;/font&gt;&lt;/p&gt;" style="vsdxID=670;edgeStyle=none;startArrow=none;endArrow=none;startSize=9;endSize=9;spacingTop=0;spacingBottom=0;spacingLeft=0;spacingRight=0;verticalAlign=middle;html=1;labelBackgroundColor=#FFFFFF;rounded=0;align=center;exitX=1;exitY=0.5;exitDx=0;exitDy=0;exitPerimeter=0;entryX=0.5;entryY=0;entryDx=0;entryDy=0;entryPerimeter=0;" parent="2" edge="1"><mxGeometry relative="1" as="geometry"><mxPoint x="-1" as="offset"/><Array as="points"><mxPoint x="1075.1" y="1543"/></Array><mxPoint x="1030" y="1543" as="sourcePoint"/></mxGeometry></mxCell><mxCell id="365" value="&lt;p style=&quot;align:center;margin-left:0;margin-right:0;margin-top:0px;margin-bottom:0px;text-indent:0;valign:middle;direction:ltr;&quot;&gt;&lt;font style=&quot;font-size:11px;font-family:Calibri;color:#4f88bb;direction:ltr;letter-spacing:0px;line-height:120%;opacity:1&quot;&gt;N&lt;br/&gt;&lt;/font&gt;&lt;/p&gt;" style="vsdxID=694;edgeStyle=none;startArrow=none;endArrow=none;startSize=9;endSize=9;spacingTop=0;spacingBottom=0;spacingLeft=0;spacingRight=0;verticalAlign=middle;html=1;labelBackgroundColor=#FFFFFF;rounded=0;align=center;exitX=0;exitY=0.5;exitDx=0;exitDy=0;exitPerimeter=0;entryX=0.5;entryY=0;entryDx=0;entryDy=0;entryPerimeter=0;" parent="2" edge="1"><mxGeometry relative="1" as="geometry"><mxPoint x="-3" as="offset"/><Array as="points"><mxPoint x="915.1" y="1543"/></Array><mxPoint x="930" y="1543" as="sourcePoint"/></mxGeometry></mxCell><mxCell id="366" value="&lt;p style=&quot;align:center;margin-left:0;margin-right:0;margin-top:0px;margin-bottom:0px;text-indent:0;valign:middle;direction:ltr;&quot;&gt;&lt;font style=&quot;font-size:11px;font-family:Calibri;color:#4f88bb;direction:ltr;letter-spacing:0px;line-height:120%;opacity:1&quot;&gt;N&lt;br/&gt;&lt;/font&gt;&lt;/p&gt;" style="vsdxID=696;edgeStyle=none;startArrow=none;endArrow=none;startSize=9;endSize=9;spacingTop=0;spacingBottom=0;spacingLeft=0;spacingRight=0;verticalAlign=middle;html=1;labelBackgroundColor=#FFFFFF;rounded=0;align=center;exitX=1;exitY=0.5;exitDx=0;exitDy=0;exitPerimeter=0;entryX=0.5;entryY=0;entryDx=0;entryDy=0;entryPerimeter=0;" parent="2" edge="1"><mxGeometry relative="1" as="geometry"><mxPoint x="7" y="-1" as="offset"/><Array as="points"><mxPoint x="1140" y="1607"/><mxPoint x="1140" y="1662"/><mxPoint x="1129.9" y="1662"/></Array><mxPoint x="1125" y="1607" as="sourcePoint"/></mxGeometry></mxCell><mxCell id="367" value="" style="vsdxID=746;edgeStyle=none;startArrow=none;endArrow=none;startSize=9;endSize=9;spacingTop=0;spacingBottom=0;spacingLeft=0;spacingRight=0;verticalAlign=middle;html=1;labelBackgroundColor=#FFFFFF;rounded=0;align=center;exitX=0.5;exitY=1.027027027027027;exitDx=0;exitDy=0;exitPerimeter=0;entryX=0.5;entryY=0;entryDx=0;entryDy=0;entryPerimeter=0;" parent="2" edge="1"><mxGeometry relative="1" as="geometry"><mxPoint x="10" as="offset"/><Array as="points"/><mxPoint x="1130" y="1715" as="sourcePoint"/></mxGeometry></mxCell><mxCell id="368" value="&lt;p style=&quot;align:center;margin-left:0;margin-right:0;margin-top:0px;margin-bottom:0px;text-indent:0;valign:middle;direction:ltr;&quot;&gt;&lt;font style=&quot;font-size:11px;font-family:Calibri;color:#4f88bb;direction:ltr;letter-spacing:0px;line-height:120%;opacity:1&quot;&gt;Y&lt;br/&gt;&lt;/font&gt;&lt;/p&gt;" style="vsdxID=747;edgeStyle=none;startArrow=none;endArrow=none;startSize=9;endSize=9;spacingTop=0;spacingBottom=0;spacingLeft=0;spacingRight=0;verticalAlign=middle;html=1;labelBackgroundColor=#FFFFFF;rounded=0;align=center;exitX=0;exitY=0.5;exitDx=0;exitDy=0;exitPerimeter=0;entryX=1;entryY=0.5;entryDx=0;entryDy=0;entryPerimeter=0;" parent="2" edge="1"><mxGeometry relative="1" as="geometry"><mxPoint as="offset"/><Array as="points"><mxPoint x="1010" y="1607"/><mxPoint x="1010" y="1715.77"/></Array><mxPoint x="1025" y="1607" as="sourcePoint"/></mxGeometry></mxCell><mxCell id="369" value="" style="vsdxID=964;edgeStyle=none;startArrow=none;endArrow=none;startSize=9;endSize=9;spacingTop=0;spacingBottom=0;spacingLeft=0;spacingRight=0;verticalAlign=middle;html=1;labelBackgroundColor=#ffffff;rounded=0;align=center;exitX=0.5;exitY=1;exitDx=0;exitDy=0;exitPerimeter=0;entryX=0.5;entryY=0;entryDx=0;entryDy=0;entryPerimeter=0;" parent="2" edge="1"><mxGeometry relative="1" as="geometry"><mxPoint x="10" as="offset"/><Array as="points"/><mxPoint x="1255" y="1423" as="targetPoint"/></mxGeometry></mxCell><mxCell id="370" value="" style="vsdxID=743;edgeStyle=none;startArrow=none;endArrow=none;startSize=9;endSize=9;spacingTop=0;spacingBottom=0;spacingLeft=0;spacingRight=0;verticalAlign=middle;html=1;labelBackgroundColor=#FFFFFF;rounded=0;align=center;exitX=0.5;exitY=1;exitDx=0;exitDy=0;exitPerimeter=0;entryX=0.5;entryY=0;entryDx=0;entryDy=0;entryPerimeter=0;" parent="2" edge="1"><mxGeometry relative="1" as="geometry"><mxPoint x="10" as="offset"/><Array as="points"/><mxPoint x="980" y="1503" as="targetPoint"/></mxGeometry></mxCell></root></mxGraphModel></diagram></mxfile>